<svg width="39" height="40" viewBox="0 0 39 40" fill="none" xmlns="http://www.w3.org/2000/svg">
<path d="M39 28.7643C38.9991 31.3864 38.0876 33.9296 36.4163 35.9728C34.745 38.0161 32.4142 39.4369 29.8097 40L28.5656 36.3302C29.7048 36.1457 30.7883 35.715 31.7378 35.0691C32.6874 34.4232 33.4794 33.5783 34.0568 32.5951H29.25C28.2157 32.5951 27.2237 32.1911 26.4923 31.472C25.7609 30.7528 25.35 29.7775 25.35 28.7604V21.091C25.35 20.0739 25.7609 19.0986 26.4923 18.3794C27.2237 17.6603 28.2157 17.2563 29.25 17.2563H34.9791C34.5032 13.5498 32.6682 10.1414 29.8183 7.67074C26.9684 5.20004 23.2995 3.83679 19.5 3.83679C15.7005 3.83679 12.0316 5.20004 9.18172 7.67074C6.33181 10.1414 4.49676 13.5498 4.0209 17.2563H9.75C10.7843 17.2563 11.7763 17.6603 12.5077 18.3794C13.2391 19.0986 13.65 20.0739 13.65 21.091V28.7604C13.65 29.7775 13.2391 30.7528 12.5077 31.472C11.7763 32.1911 10.7843 32.5951 9.75 32.5951H3.9C2.86566 32.5951 1.87368 32.1911 1.14228 31.472C0.410892 30.7528 0 29.7775 0 28.7604V19.1736C0 8.58403 8.73015 0 19.5 0C30.2698 0 39 8.58403 39 19.1736V28.7643ZM35.1 28.7604V21.091H29.25V28.7604H35.1ZM3.9 21.091V28.7604H9.75V21.091H3.9Z" fill="black"/>
</svg>
