<svg width="39" height="34" viewBox="0 0 39 34" fill="none" xmlns="http://www.w3.org/2000/svg">
<path d="M21.116 7.57432H6.386C5.87807 7.57432 5.46436 7.16784 5.46436 6.66878C5.46436 6.16973 5.87807 5.76324 6.386 5.76324H21.116C21.6239 5.76324 22.0376 6.16973 22.0376 6.66878C22.0376 7.16784 21.6239 7.57432 21.116 7.57432Z" fill="white"/>
<path d="M21.116 12.4803H6.386C5.87807 12.4803 5.46436 12.0738 5.46436 11.5748C5.46436 11.0757 5.87807 10.6693 6.386 10.6693H21.116C21.6239 10.6693 22.0376 11.0757 22.0376 11.5748C22.0376 12.0738 21.6239 12.4803 21.116 12.4803Z" fill="white"/>
<path d="M21.116 17.3863H6.386C5.87807 17.3863 5.46436 16.9798 5.46436 16.4808C5.46436 15.9817 5.87807 15.5753 6.386 15.5753H21.116C21.6239 15.5753 22.0376 15.9817 22.0376 16.4808C22.0376 16.9798 21.6239 17.3863 21.116 17.3863Z" fill="white"/>
<path d="M25.6546 24.1397V32.1929H1.84329V1.81108H25.6546V13.3899L27.1702 11.9008L27.4978 12.2228V0.90554C27.4978 0.406487 27.0841 0 26.5762 0H0.921647C0.413717 0 0 0.406487 0 0.90554V33.0945C0 33.5935 0.413717 34 0.921647 34H26.5762C27.0841 34 27.4978 33.5935 27.4978 33.0945V22.3246L25.6546 24.1357V24.1397Z" fill="white"/>
<path d="M14.7218 30.414C14.4801 30.414 14.2466 30.3215 14.0705 30.1484C13.8534 29.9351 13.7592 29.6333 13.8165 29.3395L15.2912 21.7048C15.3239 21.5277 15.414 21.3627 15.5451 21.2339L28.6735 8.33496C29.0339 7.98079 29.6156 7.98079 29.9761 8.33496L36.2719 14.5208C36.444 14.6898 36.5423 14.9192 36.5423 15.1607C36.5423 15.4022 36.444 15.6316 36.2719 15.8006L23.1436 28.6995C23.0125 28.8283 22.8446 28.9128 22.6643 28.9491L14.8938 30.3979C14.8365 30.41 14.7791 30.414 14.7218 30.414ZM17.0484 22.3165L15.8769 28.3695L22.0376 27.2185L34.3099 15.1607L29.3166 10.2547L17.0443 22.3125L17.0484 22.3165Z" fill="white"/>
<path d="M35.3749 14.7623C35.1373 14.7623 34.9038 14.6738 34.7236 14.4967C34.3631 14.1425 34.3631 13.571 34.7236 13.2169L36.7717 11.2046L33.3472 7.83997L31.2991 9.85228C30.9387 10.2064 30.357 10.2064 29.9965 9.85228C29.6361 9.49811 29.6361 8.92661 29.9965 8.57245L32.6959 5.9162C33.0564 5.56203 33.6381 5.56203 33.9985 5.9162L38.7256 10.5606C38.8976 10.7296 38.9959 10.959 38.9959 11.2005C38.9959 11.442 38.8976 11.6714 38.7256 11.8404L36.0221 14.4927C35.8418 14.6697 35.6083 14.7583 35.3708 14.7583" fill="white"/>
<path d="M22.6111 28.4339C22.3735 28.4339 22.14 28.3454 21.9598 28.1683L16.0858 22.393C15.7253 22.0388 15.7253 21.4673 16.0858 21.1132C16.4463 20.759 17.0279 20.759 17.3884 21.1132L23.2624 26.8845C23.6228 27.2386 23.6228 27.8101 23.2624 28.1643C23.0821 28.3414 22.8486 28.4299 22.6111 28.4299" fill="white"/>
<path d="M32.8434 17.7848C32.6058 17.7848 32.3723 17.6962 32.1921 17.5192L26.9244 12.3435C26.5639 11.9893 26.5639 11.4178 26.9244 11.0637C27.2848 10.7095 27.8665 10.7095 28.227 11.0637L33.4947 16.2393C33.8552 16.5935 33.8552 17.165 33.4947 17.5192C33.3145 17.6962 33.081 17.7848 32.8434 17.7848Z" fill="white"/>
<path d="M20.0468 25.1821C19.8093 25.1821 19.5758 25.0935 19.3955 24.9164C19.0351 24.5623 19.0351 23.9908 19.3955 23.6366L29.1199 14.0822C29.4804 13.728 30.0621 13.728 30.4225 14.0822C30.783 14.4363 30.783 15.0078 30.4225 15.362L20.6981 24.9164C20.5179 25.0935 20.2844 25.1821 20.0468 25.1821Z" fill="white"/>
</svg>
