<svg width="39" height="38" viewBox="0 0 39 38" fill="none" xmlns="http://www.w3.org/2000/svg">
<path d="M28.0426 11.9576H23.7089C23.2009 11.9576 22.7872 12.3684 22.7872 12.8728C22.7872 13.3771 23.2009 13.7879 23.7089 13.7879H27.121V28.1614H8.14326V22.5161L6.29997 20.6859V29.0725C6.29997 29.5768 6.71369 29.9876 7.22162 29.9876H28.0426C28.5506 29.9876 28.9643 29.5768 28.9643 29.0725V12.8728C28.9643 12.3684 28.5506 11.9576 28.0426 11.9576Z" fill="white"/>
<path d="M14.1606 38C12.3091 38 10.8017 36.5033 10.8017 34.6649C10.8017 32.8265 12.3091 31.3298 14.1606 31.3298C16.0121 31.3298 17.5195 32.8265 17.5195 34.6649C17.5195 36.5033 16.0121 38 14.1606 38ZM14.1606 33.156C13.325 33.156 12.645 33.8311 12.645 34.6608C12.645 35.4905 13.325 36.1657 14.1606 36.1657C14.9962 36.1657 15.6762 35.4905 15.6762 34.6608C15.6762 33.8311 14.9962 33.156 14.1606 33.156Z" fill="white"/>
<path d="M29.3534 38C27.5019 38 25.9945 36.5033 25.9945 34.6649C25.9945 32.8265 27.5019 31.3298 29.3534 31.3298C31.2049 31.3298 32.7123 32.8265 32.7123 34.6649C32.7123 36.5033 31.2049 38 29.3534 38ZM29.3534 33.156C28.5178 33.156 27.8378 33.8311 27.8378 34.6608C27.8378 35.4905 28.5178 36.1657 29.3534 36.1657C30.1891 36.1657 30.869 35.4905 30.869 34.6608C30.869 33.8311 30.1891 33.156 29.3534 33.156Z" fill="white"/>
<path d="M38.0784 35.6735H32.1675C31.6596 35.6735 31.2459 35.2627 31.2459 34.7584C31.2459 34.2541 31.6596 33.8433 32.1675 33.8433H37.1567V22.5852L32.3641 16.2119H28.3253C27.8174 16.2119 27.4036 15.8011 27.4036 15.2968C27.4036 14.7924 27.8174 14.3817 28.3253 14.3817H32.827C33.1178 14.3817 33.3923 14.5199 33.5643 14.7477L38.8157 21.7311C38.9345 21.8897 39 22.0809 39 22.2802V34.7584C39 35.2627 38.5863 35.6735 38.0784 35.6735Z" fill="white"/>
<path d="M26.5434 35.6736H17.0689C16.561 35.6736 16.1473 35.2628 16.1473 34.7584C16.1473 34.2541 16.561 33.8433 17.0689 33.8433H26.5434C27.0514 33.8433 27.4651 34.2541 27.4651 34.7584C27.4651 35.2628 27.0514 35.6736 26.5434 35.6736Z" fill="white"/>
<path d="M11.2523 35.6735H7.21752C6.70959 35.6735 6.29587 35.2627 6.29587 34.7584V29.0765C6.29587 28.5722 6.70959 28.1614 7.21752 28.1614C7.72545 28.1614 8.13917 28.5722 8.13917 29.0765V33.8433H11.2523C11.7602 33.8433 12.1739 34.2541 12.1739 34.7584C12.1739 35.2627 11.7602 35.6735 11.2523 35.6735Z" fill="white"/>
<path d="M11.199 26.4694C10.9615 26.4694 10.728 26.38 10.5477 26.201L3.28106 18.9858C1.16332 16.8871 0 14.0929 0 11.1198C0 8.14663 1.16332 5.35652 3.28106 3.25784C5.39471 1.15916 8.2088 0 11.199 0C14.1893 0 17.0034 1.15916 19.117 3.25784C21.2347 5.35652 22.3981 8.1507 22.3981 11.1198C22.3981 14.0888 21.2347 16.883 19.117 18.9817L11.8503 26.1969C11.6701 26.3759 11.4366 26.4654 11.199 26.4654M11.199 1.82618C8.70035 1.82618 6.34912 2.79418 4.58366 4.54715C2.8141 6.30012 1.84329 8.6347 1.84329 11.1157C1.84329 13.5967 2.81819 15.9313 4.58366 17.6843L11.199 24.2528L17.8144 17.6843C19.5799 15.9313 20.5548 13.5967 20.5548 11.1157C20.5548 8.6347 19.5799 6.30012 17.8144 4.54715C16.0489 2.79418 13.6977 1.82618 11.199 1.82618ZM11.199 15.9882C9.88825 15.9882 8.65529 15.4798 7.72955 14.5606C5.81662 12.6612 5.81662 9.57016 7.72955 7.67484C8.65529 6.75565 9.88825 6.24724 11.199 6.24724C12.5098 6.24724 13.7428 6.75565 14.6685 7.67484C16.5815 9.57423 16.5815 12.6612 14.6685 14.5606C13.7428 15.4798 12.5098 15.9882 11.199 15.9882ZM11.199 8.07749C10.3798 8.07749 9.6138 8.39473 9.03214 8.96821C7.84014 10.1518 7.84014 12.0796 9.03214 13.2673C9.6097 13.8407 10.3798 14.158 11.1949 14.158C12.0101 14.158 12.7802 13.8407 13.3618 13.2673C14.5538 12.0837 14.5538 10.1518 13.3618 8.96821C12.7843 8.39473 12.0142 8.07749 11.1949 8.07749" fill="white"/>
<path d="M11.199 15.9923C9.88825 15.9923 8.65529 15.4839 7.72955 14.5647C5.81662 12.6653 5.81662 9.5742 7.72955 7.67887C8.65529 6.75968 9.88825 6.25128 11.199 6.25128C12.5098 6.25128 13.7428 6.75968 14.6685 7.67887C16.5815 9.57826 16.5815 12.6653 14.6685 14.5647C13.7428 15.4839 12.5098 15.9923 11.199 15.9923ZM11.199 8.08153C10.3798 8.08153 9.6138 8.39877 9.03214 8.97225C7.84014 10.1558 7.84014 12.0837 9.03214 13.2713C9.6097 13.8448 10.3798 14.162 11.1949 14.162C12.0101 14.162 12.7802 13.8448 13.3618 13.2713C14.5538 12.0877 14.5538 10.1558 13.3618 8.97225C12.7843 8.39877 12.0142 8.08153 11.1949 8.08153" fill="white"/>
</svg>
