<svg width="62" height="61" viewBox="0 0 62 61" fill="none" xmlns="http://www.w3.org/2000/svg">
<rect x="1.38069" y="0.741255" width="59" height="59" transform="rotate(-0.23232 1.38069 0.741255)" stroke="#20C8BC"/>
<line x1="6.09557" y1="53.7225" x2="56.0952" y2="53.5198" stroke="#20C8BC"/>
<line x1="6.03881" y1="39.7227" x2="56.0384" y2="39.5199" stroke="#20C8BC"/>
<path d="M15.0635 18.1859L13.0636 18.194L9.29824 12.9452L8.18201 13.8778L8.19959 18.2137L6.47161 18.2207L6.42529 6.79684L8.15327 6.78983L8.17566 12.3098C8.45165 11.978 8.72766 11.6515 9.00369 11.3304C9.27972 11.0093 9.55576 10.6882 9.83179 10.3671L12.9052 6.77057L14.8892 6.76252L10.5415 11.7722L15.0635 18.1859ZM26.0051 12.4135C26.0087 13.2988 25.9 14.1046 25.6789 14.8308C25.4685 15.5464 25.1403 16.1664 24.6944 16.6908C24.2592 17.2153 23.7062 17.6175 23.0353 17.8976C22.3751 18.1776 21.6023 18.3194 20.717 18.323C19.8104 18.3267 19.0205 18.1912 18.3473 17.9166C17.6849 17.6313 17.1286 17.2335 16.6785 16.7233C16.239 16.2025 15.9112 15.5798 15.6949 14.8553C15.4786 14.1309 15.3687 13.326 15.3651 12.4406C15.3604 11.2673 15.5482 10.2425 15.9287 9.36633C16.3091 8.49011 16.893 7.80507 17.6803 7.31121C18.4783 6.8173 19.48 6.56791 20.6853 6.56302C21.8587 6.55826 22.8356 6.79963 23.6163 7.28714C24.4076 7.76394 25.0023 8.4442 25.4006 9.32792C25.7988 10.201 26.0003 11.2295 26.0051 12.4135ZM17.1892 12.4492C17.1929 13.3666 17.3188 14.1554 17.5668 14.8157C17.8147 15.4654 18.2008 15.9705 18.7249 16.331C19.249 16.6809 19.9111 16.8542 20.711 16.851C21.5217 16.8477 22.1823 16.669 22.6929 16.315C23.2034 15.9502 23.58 15.442 23.8227 14.7904C24.0654 14.128 24.1848 13.3382 24.1811 12.4209C24.1755 11.0449 23.8939 9.97404 23.3361 9.20829C22.7889 8.43184 21.9074 8.04608 20.6914 8.05101C19.8807 8.05429 19.2148 8.23299 18.6935 8.58711C18.1723 8.94123 17.7903 9.44411 17.5476 10.0958C17.3049 10.7474 17.1855 11.5319 17.1892 12.4492ZM31.3445 6.6958C32.3258 6.69182 33.1316 6.81122 33.7619 7.054C34.3923 7.29678 34.8631 7.66287 35.1744 8.15228C35.4857 8.63102 35.6428 9.23839 35.6458 9.97439C35.6482 10.561 35.5382 11.0575 35.3158 11.4637C35.1041 11.8593 34.8281 12.1857 34.4878 12.4431C34.1475 12.6898 33.7909 12.8886 33.4182 13.0394L36.6387 18.0984L34.6548 18.1065L31.884 13.4937L29.9 13.5017L29.9188 18.1257L28.1908 18.1327L28.1445 6.70877L31.3445 6.6958ZM31.2384 8.16824L29.8784 8.17376L29.8942 12.0617L31.3342 12.0559C31.9209 12.0535 32.4005 11.9769 32.7733 11.826C33.1567 11.6752 33.4331 11.45 33.6025 11.1507C33.7827 10.8513 33.8718 10.4829 33.8701 10.0456C33.8682 9.58692 33.7707 9.22465 33.5777 8.95876C33.3952 8.68217 33.1064 8.48067 32.7112 8.35427C32.3267 8.22783 31.8358 8.16582 31.2384 8.16824ZM44.4277 18.0668L37.9957 18.0929L37.9494 6.66902L44.3814 6.64294L44.3873 8.11493L39.6834 8.134L39.6966 11.398L44.1126 11.3801L44.1185 12.8361L39.7025 12.854L39.7177 16.5979L44.4216 16.5789L44.4277 18.0668ZM53.7018 18.0292L52.4725 14.7382L48.0565 14.7561L46.8539 18.057L45.0619 18.0643L49.3514 6.57479L51.1434 6.56752L55.5098 18.0219L53.7018 18.0292ZM50.8214 10.0249C50.7889 9.90765 50.7295 9.73189 50.6432 9.49757C50.5676 9.25254 50.4919 9.00751 50.4162 8.76248C50.3405 8.50679 50.281 8.29903 50.2377 8.1392C50.1852 8.35275 50.1222 8.58768 50.0486 8.84398C49.9856 9.08957 49.9225 9.31916 49.8594 9.53275C49.7962 9.73567 49.7435 9.90122 49.7014 10.0294L48.5624 13.25L51.9864 13.2362L50.8214 10.0249Z" fill="white"/>
<path d="M19.8861 23.7424L16.9244 35.1785L15.0844 35.186L13.0399 28.1382C12.9751 27.9465 12.9102 27.7334 12.8453 27.499C12.791 27.2645 12.7367 27.0354 12.6825 26.8117C12.6282 26.5772 12.5793 26.3694 12.5359 26.1882C12.5032 26.007 12.476 25.8685 12.4543 25.7726C12.444 25.8686 12.4232 26.0074 12.3919 26.1888C12.3607 26.3703 12.3189 26.5785 12.2665 26.8133C12.2141 27.0376 12.1617 27.2724 12.1093 27.518C12.0569 27.7529 11.9992 27.9771 11.9361 28.1907L9.98049 35.2067L8.1405 35.2141L5.10221 23.8024L6.87819 23.7952L8.58556 30.5403C8.63984 30.7747 8.69415 31.0145 8.74847 31.2596C8.8028 31.5048 8.8518 31.7499 8.89546 31.9951C8.94979 32.2402 8.99343 32.48 9.02638 32.7145C9.06995 32.9384 9.10813 33.1462 9.14091 33.3381C9.17208 33.1353 9.2032 32.9165 9.23424 32.6817C9.27596 32.4468 9.32299 32.2067 9.37532 31.9611C9.42762 31.7049 9.47994 31.454 9.53227 31.2085C9.59528 30.9629 9.65837 30.7386 9.72155 30.5357L11.5982 23.776L13.3261 23.769L15.3216 30.545C15.3865 30.7581 15.4461 30.9871 15.5004 31.2323C15.5654 31.4773 15.6251 31.7278 15.6795 31.9835C15.7338 32.2287 15.7774 32.4685 15.8104 32.703C15.854 32.9268 15.8921 33.1294 15.9249 33.3106C15.9558 33.0438 15.9973 32.7556 16.0493 32.446C16.112 32.1258 16.1801 31.8002 16.2534 31.4692C16.3267 31.1276 16.4 30.8073 16.4735 30.5083L18.1261 23.7496L19.8861 23.7424ZM27.7622 35.1346L26.5329 31.8435L22.1169 31.8614L20.9143 35.1623L19.1223 35.1696L23.4117 23.6801L25.2037 23.6729L29.5702 35.1272L27.7622 35.1346ZM24.8817 27.1302C24.8493 27.013 24.7899 26.8372 24.7036 26.6029C24.6279 26.3579 24.5523 26.1129 24.4766 25.8678C24.4009 25.6121 24.3414 25.4044 24.2981 25.2445C24.2456 25.4581 24.1826 25.693 24.1089 25.9493C24.0459 26.1949 23.9829 26.4245 23.9197 26.6381C23.8566 26.841 23.8039 27.0066 23.7617 27.1347L22.6228 30.3554L26.0468 30.3415L24.8817 27.1302ZM37.3384 32.0077C37.3411 32.6904 37.1782 33.2724 36.8494 33.7537C36.5207 34.2351 36.0476 34.6103 35.43 34.8795C34.8124 35.138 34.0769 35.269 33.2236 35.2724C32.8076 35.2741 32.4075 35.2491 32.0233 35.1973C31.6391 35.1562 31.2815 35.0936 30.9505 35.0096C30.6195 34.9257 30.3257 34.8202 30.0692 34.6932L30.0626 33.0612C30.49 33.2515 30.9921 33.4255 31.5687 33.5831C32.1453 33.7301 32.7323 33.8024 33.3296 33.8C33.8416 33.7979 34.268 33.7269 34.6087 33.5868C34.9495 33.4468 35.2047 33.2537 35.3744 33.0077C35.5441 32.7617 35.6282 32.4733 35.6269 32.1427C35.6255 31.7907 35.5336 31.4977 35.3513 31.2638C35.1797 31.0191 34.9068 30.7962 34.5326 30.5951C34.1691 30.3832 33.6775 30.1612 33.0579 29.9291C32.6306 29.7708 32.2405 29.5964 31.8878 29.4058C31.5456 29.2045 31.2407 28.9711 30.9729 28.7055C30.7158 28.4399 30.5173 28.1313 30.3772 27.7799C30.2371 27.4285 30.1661 27.0181 30.1642 26.5488C30.1616 25.9194 30.3141 25.3801 30.6216 24.9309C30.9398 24.4816 31.3757 24.1385 31.9295 23.9016C32.4831 23.654 33.128 23.5287 33.8639 23.5257C34.4826 23.5232 35.0535 23.5849 35.5767 23.7108C36.1105 23.826 36.6178 23.9892 37.0987 24.2006L36.5605 25.6268C36.1224 25.4473 35.6792 25.2997 35.2307 25.1842C34.7822 25.0687 34.3126 25.0119 33.822 25.0139C33.3953 25.0157 33.0382 25.0811 32.7508 25.2103C32.4633 25.3394 32.2453 25.5163 32.0969 25.7409C31.9592 25.9655 31.8909 26.2271 31.8921 26.5258C31.8935 26.8778 31.9747 27.1708 32.1357 27.4048C32.2966 27.6388 32.5535 27.8564 32.9063 28.0577C33.2591 28.2482 33.724 28.4597 34.3009 28.692C34.9419 28.9347 35.487 29.1992 35.9361 29.4854C36.396 29.7715 36.744 30.1168 36.9803 30.5212C37.2166 30.9149 37.3359 31.4104 37.3384 32.0077ZM43.1077 35.0724L41.3797 35.0794L41.3394 25.1434L37.9155 25.1573L37.9094 23.6693L46.4854 23.6346L46.4914 25.1226L43.0674 25.1364L43.1077 35.0724ZM54.3953 35.0266L47.9633 35.0527L47.917 23.6288L54.3489 23.6027L54.3549 25.0747L49.6509 25.0937L49.6642 28.3577L54.0801 28.3398L54.086 29.7958L49.6701 29.8137L49.6853 33.5577L54.3892 33.5386L54.3953 35.0266Z" fill="white"/>
<path d="M10.0513 50.2066L6.03134 50.2229L6.00239 43.0829L10.0224 43.0666L10.0261 43.9866L7.08611 43.9985L7.09438 46.0385L9.85436 46.0273L9.85805 46.9373L7.09807 46.9485L7.10756 49.2885L10.0475 49.2766L10.0513 50.2066ZM16.4177 50.1807L15.1877 50.1857L13.3556 47.2131L11.5277 50.2006L10.3777 50.2052L12.7326 46.4857L10.4988 43.0647L11.6987 43.0598L13.3898 45.783L15.0687 43.0462L16.2187 43.0415L14.0127 46.4905L16.4177 50.1807ZM19.9302 43.8565C19.5769 43.8579 19.2605 43.9225 18.981 44.0503C18.7015 44.1714 18.4622 44.3524 18.2632 44.5932C18.0709 44.834 17.922 45.1246 17.8168 45.465C17.7181 45.8054 17.6697 46.189 17.6714 46.6156C17.6737 47.1756 17.759 47.662 17.9273 48.0746C18.0956 48.4806 18.3469 48.7929 18.6811 49.0116C19.0154 49.2302 19.4358 49.3385 19.9425 49.3365C20.2491 49.3352 20.5424 49.3074 20.8221 49.2529C21.1086 49.1917 21.3982 49.1139 21.6912 49.0194L21.695 49.9493C21.4154 50.0572 21.129 50.135 20.8359 50.1828C20.5428 50.2374 20.2029 50.2654 19.8162 50.267C19.0896 50.2699 18.4823 50.1224 17.9944 49.8244C17.5132 49.5263 17.1515 49.1011 16.9092 48.5487C16.667 47.9964 16.5444 47.3502 16.5414 46.6102C16.5392 46.0702 16.6105 45.5766 16.7554 45.1293C16.9069 44.6754 17.1253 44.2845 17.4106 43.9567C17.696 43.6288 18.0483 43.3774 18.4676 43.2024C18.8935 43.0207 19.3831 42.9287 19.9365 42.9264C20.2965 42.925 20.65 42.9635 20.997 43.0421C21.3439 43.1141 21.6577 43.2194 21.9382 43.3583L21.5419 44.2599C21.3081 44.1542 21.0544 44.0619 20.7808 43.983C20.5138 43.8974 20.2302 43.8552 19.9302 43.8565ZM28.5039 50.1317L27.4239 50.1361L27.4107 46.8761L24.0007 46.89L24.0139 50.1499L22.9339 50.1543L22.905 43.0144L23.985 43.01L23.997 45.97L27.4069 45.9562L27.3949 42.9962L28.4749 42.9918L28.5039 50.1317ZM34.5643 50.1072L33.796 48.0503L31.036 48.0615L30.2843 50.1245L29.1643 50.1291L31.8453 42.9481L32.9652 42.9436L35.6943 50.1026L34.5643 50.1072ZM32.764 45.1044C32.7437 45.0312 32.7066 44.9213 32.6527 44.7749C32.6054 44.6217 32.5581 44.4686 32.5108 44.3154C32.4635 44.1556 32.4263 44.0258 32.3992 43.9259C32.3664 44.0594 32.327 44.2062 32.281 44.3664C32.2416 44.5199 32.2022 44.6634 32.1628 44.7969C32.1233 44.9237 32.0904 45.0272 32.064 45.1073L31.3522 47.1202L33.4921 47.1115L32.764 45.1044ZM42.2172 50.0761L40.9072 50.0815L37.2739 44.3261L37.2339 44.3263C37.2411 44.4596 37.2483 44.6029 37.2556 44.7562C37.2696 44.9095 37.2802 45.0728 37.2876 45.2461C37.2949 45.4127 37.3023 45.586 37.3097 45.766C37.3171 45.9393 37.3211 46.116 37.3218 46.296L37.3373 50.0959L36.3573 50.0999L36.3283 42.96L37.6283 42.9547L41.2515 48.68L41.2815 48.6799C41.2745 48.5799 41.2673 48.4566 41.26 48.31C41.2528 48.1567 41.2454 47.9934 41.2381 47.8201C41.2374 47.6468 41.2333 47.4701 41.2259 47.2901C41.2185 47.1102 41.2112 46.9402 41.2038 46.7802L41.1883 42.9403L42.1883 42.9362L42.2172 50.0761ZM46.7853 46.2176L49.3653 46.2071L49.3797 49.7671C49.0002 49.8953 48.6106 49.9902 48.2108 50.0518C47.8178 50.1201 47.3679 50.1553 46.8613 50.1573C46.1346 50.1603 45.5173 50.0161 45.0095 49.7248C44.5083 49.4335 44.1233 49.0151 43.8544 48.4695C43.5922 47.9239 43.4595 47.2677 43.4564 46.5011C43.4534 45.7544 43.5974 45.1072 43.8885 44.5593C44.1796 44.0115 44.5979 43.5864 45.1434 43.2842C45.6955 42.9753 46.3648 42.8193 47.1515 42.8161C47.5448 42.8145 47.9216 42.8529 48.282 42.9315C48.6423 43.0034 48.976 43.1053 49.2832 43.2374L48.8969 44.139C48.6497 44.0267 48.3727 43.9345 48.0657 43.8624C47.7654 43.7836 47.4486 43.7449 47.1153 43.7462C46.5886 43.7484 46.1324 43.8635 45.7466 44.0918C45.3675 44.3133 45.0755 44.6312 44.8705 45.0453C44.6722 45.4528 44.5741 45.9399 44.5764 46.5065C44.5786 47.0399 44.6638 47.5129 44.8322 47.9255C45.0005 48.3382 45.2652 48.6604 45.6261 48.8923C45.9871 49.1242 46.4575 49.2389 47.0375 49.2366C47.2309 49.2358 47.4008 49.2284 47.5474 49.2145C47.694 49.1939 47.8273 49.1734 47.9472 49.1529C48.0737 49.1257 48.1937 49.1019 48.3069 49.0814L48.299 47.1415L46.789 47.1476L46.7853 46.2176ZM54.8064 50.0251L50.7864 50.0414L50.7575 42.9015L54.7775 42.8852L54.7812 43.8051L51.8412 43.8171L51.8495 45.857L54.6095 45.8459L54.6131 46.7558L51.8532 46.767L51.8627 49.107L54.8026 49.0951L54.8064 50.0251Z" fill="#20C8BC"/>
</svg>
