<svg width="16" height="15" viewBox="0 0 16 15" fill="none" xmlns="http://www.w3.org/2000/svg">
<path d="M6.38483 0.159458C7.44955 -0.0526461 8.54895 -0.0531568 9.61389 0.157958C9.68483 0.602827 9.8604 1.02679 10.1276 1.39832C10.3947 1.76986 10.7466 2.07942 11.157 2.304C11.5671 2.52934 12.0254 2.66397 12.4978 2.69785C12.9702 2.73173 13.4446 2.664 13.8856 2.4997C14.6104 3.27058 15.1595 4.17562 15.4982 5.15788C15.1283 5.43875 14.8297 5.7952 14.6248 6.20075C14.4198 6.60629 14.3136 7.0505 14.3142 7.50037C14.3142 8.44817 14.7768 9.29324 15.4998 9.84287C15.159 10.8243 14.6093 11.7286 13.8848 12.4995C13.4439 12.3354 12.9697 12.2677 12.4974 12.3016C12.0251 12.3355 11.567 12.47 11.157 12.6953C10.7469 12.9198 10.3953 13.2291 10.1283 13.6004C9.86131 13.9716 9.68576 14.3953 9.61468 14.8398C8.55007 15.0524 7.45067 15.0534 6.38562 14.8428C6.31502 14.3975 6.1396 13.9731 5.87243 13.6012C5.60526 13.2292 5.25323 12.9193 4.84253 12.6945C4.43237 12.4693 3.97405 12.3348 3.50164 12.301C3.02923 12.2673 2.55489 12.3351 2.11389 12.4995C1.38899 11.7284 0.839951 10.8231 0.501335 9.84062C0.871041 9.5599 1.16945 9.20369 1.37441 8.79842C1.57938 8.39316 1.68564 7.94924 1.6853 7.49962C1.68568 7.04963 1.5793 6.60534 1.37405 6.19979C1.1688 5.79424 0.86996 5.43785 0.499756 5.15713C0.840475 4.17568 1.39019 3.27136 2.11468 2.50045C2.55563 2.66464 3.02986 2.7323 3.50212 2.69842C3.97438 2.66454 4.43253 2.52998 4.84253 2.30474C5.25261 2.08024 5.6042 1.77088 5.8712 1.39962C6.1382 1.02836 6.31376 0.603993 6.38483 0.159458ZM7.99976 9.74989C8.62777 9.74989 9.23006 9.51289 9.67413 9.09102C10.1182 8.66916 10.3677 8.09698 10.3677 7.50037C10.3677 6.90377 10.1182 6.33159 9.67413 5.90973C9.23006 5.48786 8.62777 5.25086 7.99976 5.25086C7.37174 5.25086 6.76945 5.48786 6.32538 5.90973C5.88131 6.33159 5.63183 6.90377 5.63183 7.50037C5.63183 8.09698 5.88131 8.66916 6.32538 9.09102C6.76945 9.51289 7.37174 9.74989 7.99976 9.74989Z" fill="black"/>
</svg>
