<svg width="200" height="200" viewBox="0 0 200 200" fill="none" xmlns="http://www.w3.org/2000/svg">
<path d="M78.175 138.25L138.25 100L78.175 61.7502V138.25ZM100 190C87.7 190 76.075 187.638 65.125 182.913C54.175 178.188 44.6125 171.738 36.4375 163.563C28.2625 155.388 21.8125 145.825 17.0875 134.875C12.3625 123.925 10 112.3 10 100C10 87.5502 12.3625 75.8502 17.0875 64.9002C21.8125 53.9502 28.2625 44.4252 36.4375 36.3252C44.6125 28.2252 54.175 21.8127 65.125 17.0877C76.075 12.3627 87.7 10.0002 100 10.0002C112.45 10.0002 124.15 12.3627 135.1 17.0877C146.05 21.8127 155.575 28.2252 163.675 36.3252C171.775 44.4252 178.187 53.9502 182.912 64.9002C187.637 75.8502 190 87.5502 190 100C190 112.3 187.637 123.925 182.912 134.875C178.187 145.825 171.775 155.388 163.675 163.563C155.575 171.738 146.05 178.188 135.1 182.913C124.15 187.638 112.45 190 100 190ZM100 176.5C121.3 176.5 139.375 169.038 154.225 154.113C169.075 139.188 176.5 121.15 176.5 100C176.5 78.7002 169.075 60.6252 154.225 45.7752C139.375 30.9252 121.3 23.5002 100 23.5002C78.85 23.5002 60.8125 30.9252 45.8875 45.7752C30.9625 60.6252 23.5 78.7002 23.5 100C23.5 121.15 30.9625 139.188 45.8875 154.113C60.8125 169.038 78.85 176.5 100 176.5Z" fill="#E4002B"/>
</svg>
