<svg width="38" height="38" viewBox="0 0 38 38" fill="none" xmlns="http://www.w3.org/2000/svg">
<path d="M7.2832 13.578H5.44608V23.3564H7.2832V13.578Z" fill="white"/>
<path d="M12.5782 21.5723H6.36464C5.85841 21.5723 5.44608 21.9754 5.44608 22.4703C5.44608 22.9652 5.85841 23.3684 6.36464 23.3684H12.5823V21.5723H12.5782Z" fill="white"/>
<path d="M21.0453 28.2336H6.36464C5.85841 28.2336 5.44608 27.8305 5.44608 27.3356C5.44608 26.8407 5.85841 26.4376 6.36464 26.4376H21.0453C21.5516 26.4376 21.9639 26.8407 21.9639 27.3356C21.9639 27.8305 21.5516 28.2336 21.0453 28.2336Z" fill="white"/>
<path d="M21.0453 33.0988H6.36464C5.85841 33.0988 5.44608 32.6957 5.44608 32.2008C5.44608 31.7059 5.85841 31.3028 6.36464 31.3028H21.0453C21.5516 31.3028 21.9639 31.7059 21.9639 32.2008C21.9639 32.6957 21.5516 33.0988 21.0453 33.0988Z" fill="white"/>
<path d="M25.5688 18.092V36.204H1.83713V6.07459H14.648V4.27856H0.918565C0.412333 4.27856 0 4.68167 0 5.17658V37.102C0 37.5969 0.412333 38 0.918565 38H26.4873C26.9936 38 27.4059 37.5969 27.4059 37.102V18.092H25.5688Z" fill="white"/>
<path d="M30.9577 7.87458H20.6167C20.1105 7.87458 19.6981 7.47147 19.6981 6.97657C19.6981 6.48166 20.1105 6.07855 20.6167 6.07855H30.9577C31.4639 6.07855 31.8762 6.48166 31.8762 6.97657C31.8762 7.47147 31.4639 7.87458 30.9577 7.87458Z" fill="white"/>
<path d="M30.9577 12.664H20.6167C20.1105 12.664 19.6981 12.2609 19.6981 11.766C19.6981 11.2711 20.1105 10.868 20.6167 10.868H30.9577C31.4639 10.868 31.8762 11.2711 31.8762 11.766C31.8762 12.2609 31.4639 12.664 30.9577 12.664Z" fill="white"/>
<path d="M21.6659 21.9555C21.5516 21.9555 21.4332 21.9355 21.3229 21.8876C20.9759 21.7519 20.7473 21.4206 20.7473 21.0575V18.99H18.7877C15.9136 18.99 13.5703 16.7031 13.5703 13.8893V5.10072C13.5703 2.28694 15.9095 0 18.7877 0H32.7825C35.6607 0 38 2.28694 38 5.10072V13.8893C38 16.7031 35.6607 18.99 32.7825 18.99H24.9972L22.3272 21.6801C22.1517 21.8597 21.9108 21.9515 21.6659 21.9515M18.7877 1.79603C16.9261 1.79603 15.4074 3.27676 15.4074 5.10072V13.8893C15.4074 15.7093 16.922 17.194 18.7877 17.194H21.6659C22.1721 17.194 22.5844 17.5971 22.5844 18.092V18.8423L23.948 17.4694C24.1195 17.2938 24.3603 17.198 24.6094 17.198H32.7825C34.6442 17.198 36.1629 15.7173 36.1629 13.8933V5.10072C36.1629 3.28075 34.6482 1.79603 32.7825 1.79603H18.7877Z" fill="white"/>
<path d="M12.5782 13.59H6.36464C5.85841 13.59 5.44608 13.9931 5.44608 14.488C5.44608 14.9829 5.85841 15.386 6.36464 15.386H12.5823V13.59H12.5782Z" fill="white"/>
<path d="M12.5905 13.578H10.7533V23.3564H12.5905V13.578Z" fill="white"/>
</svg>
