<svg width="39" height="35" viewBox="0 0 39 35" fill="none" xmlns="http://www.w3.org/2000/svg">
<g clip-path="url(#clip0_2_2285)">
<path d="M24.0153 12.7391C15.419 12.5889 15.419 0.150198 24.0153 0C32.6116 0.150198 32.6075 12.5929 24.0153 12.7391ZM24.0153 1.77866C17.8501 1.81028 17.8501 10.9289 24.0153 10.9605C30.1804 10.9289 30.1764 1.81028 24.0153 1.77866Z" fill="white"/>
<path d="M31.532 13.3952C24.8839 14.1818 9.39996 9.99998 9.1889 20.5138V21.3399H11.0153V20.5138C11.0153 17.5692 13.4749 15.1778 16.4946 15.1778C36.5364 15.6126 37.7743 11.2095 37.0113 33.1225H14.7615V33.9763H9.1889V34.0118C9.1889 34.502 9.59883 34.9012 10.1021 34.9012H37.9285C38.4318 34.9012 38.8417 34.502 38.8417 34.0118C38.168 27.6877 42.0278 13.5889 31.532 13.3992V13.3952Z" fill="white"/>
<path d="M23.6541 34.8972C23.2279 34.5652 2.47578 35.6996 3.06835 34.2134C3.21852 33.7352 -0.714354 20.8459 0.113619 20.668C0.288143 20.4545 0.551959 20.3281 0.832009 20.3281H20.5289C20.951 20.3281 21.3203 20.6126 21.4177 21.0119L24.5429 33.7984C24.689 34.336 24.2263 34.9091 23.6541 34.8933M4.67965 33.1146H22.4973L19.8064 22.1067H1.98874L4.67965 33.1146Z" fill="white"/>
<path d="M31.7836 28.8063H23.3416C22.1564 28.8221 22.1564 27.0119 23.3416 27.0277H30.8704V21.8261C30.8704 21.336 31.2804 20.9368 31.7836 20.9368C32.2869 20.9368 32.6968 21.336 32.6968 21.8261V27.917C32.6968 28.4071 32.2869 28.8063 31.7836 28.8063Z" fill="white"/>
</g>
<defs>
<clipPath id="clip0_2_2285">
<rect width="39" height="35" fill="white"/>
</clipPath>
</defs>
</svg>
