<svg width="26" height="30" viewBox="0 0 26 30" fill="none" xmlns="http://www.w3.org/2000/svg">
<path d="M17.25 3.66665H3.08333V26.3333H22.9167V9.33331H17.25V3.66665ZM0.25 2.23865C0.25 1.46231 0.88325 0.833313 1.66525 0.833313H18.6667L25.75 7.91665V27.7401C25.7513 27.9261 25.716 28.1106 25.646 28.283C25.576 28.4553 25.4727 28.6122 25.3421 28.7447C25.2115 28.8772 25.056 28.9826 24.8846 29.055C24.7133 29.1274 24.5293 29.1653 24.3432 29.1666H1.65675C1.2847 29.1641 0.928608 29.0152 0.665392 28.7523C0.402175 28.4893 0.252967 28.1334 0.25 27.7613V2.23865ZM15.1661 18.4651C13.978 19.1594 12.5779 19.3978 11.227 19.1359C9.87608 18.874 8.6665 18.1298 7.82382 17.0419C6.98114 15.9541 6.56286 14.5968 6.647 13.2234C6.73113 11.8499 7.31192 10.5539 8.28108 9.57698C9.25638 8.60186 10.5538 8.01589 11.9302 7.9289C13.3066 7.84192 14.6675 8.25988 15.7578 9.10446C16.8481 9.94903 17.593 11.1622 17.8528 12.5167C18.1127 13.8712 17.8696 15.2739 17.1692 16.462L20.3001 19.5928L18.2969 21.5974L15.1661 18.4666V18.4651ZM14.2906 15.5865C14.5612 15.3251 14.777 15.0125 14.9255 14.6668C15.074 14.3211 15.1522 13.9493 15.1555 13.5731C15.1587 13.1969 15.087 12.8238 14.9446 12.4756C14.8021 12.1274 14.5917 11.8111 14.3257 11.545C14.0597 11.279 13.7433 11.0686 13.3951 10.9262C13.0469 10.7837 12.6738 10.712 12.2976 10.7153C11.9214 10.7185 11.5496 10.7967 11.2039 10.9452C10.8583 11.0937 10.5456 11.3095 10.2843 11.5801C9.76814 12.1145 9.48255 12.8302 9.48901 13.5731C9.49546 14.316 9.79344 15.0266 10.3188 15.552C10.8441 16.0773 11.5547 16.3753 12.2976 16.3817C13.0405 16.3882 13.7562 16.1026 14.2906 15.5865Z" fill="black"/>
</svg>
