<svg width="33" height="38" viewBox="0 0 33 38" fill="none" xmlns="http://www.w3.org/2000/svg">
<path d="M14.8464 29.5187C14.5374 29.5187 14.2283 29.403 13.9955 29.1675L10.5839 25.775C10.1144 25.3081 10.1144 24.5497 10.5839 24.0828C11.0535 23.6158 11.8161 23.6158 12.2857 24.0828L14.8464 26.6291L20.7183 20.79C21.1879 20.3231 21.9505 20.3231 22.4201 20.79C22.8897 21.257 22.8897 22.0153 22.4201 22.4823L15.6973 29.1675C15.4645 29.403 15.1555 29.5187 14.8464 29.5187Z" fill="white"/>
<path d="M29.0064 38H3.99355C1.79008 38 0 36.2199 0 34.0288V8.98013C0 6.79297 1.79008 5.0129 3.99355 5.0129C4.49124 5.0129 4.89662 5.41601 4.89662 5.91092C4.89662 6.40582 4.49124 6.80893 3.99355 6.80893C2.78947 6.80893 1.80613 7.78278 1.80613 8.98412V34.0328C1.80613 35.2301 2.78545 36.2079 3.99355 36.2079H29.0105C30.2145 36.2079 31.1979 35.2341 31.1979 34.0328V8.98013C31.1979 7.78278 30.2186 6.80494 29.0105 6.80494C28.5128 6.80494 28.1074 6.40183 28.1074 5.90693C28.1074 5.41202 28.5128 5.00891 29.0105 5.00891C31.2139 5.00891 33.004 6.78898 33.004 8.98013V34.0288C33.004 36.2199 31.2139 38 29.0105 38" fill="white"/>
<path d="M28.5569 34.3481H4.4431C3.94541 34.3481 3.54004 33.945 3.54004 33.4501V5.91095C3.54004 5.41605 3.94541 5.01294 4.4431 5.01294H11.2382C11.7359 5.01294 12.1412 5.41605 12.1412 5.91095C12.1412 6.40586 11.7359 6.80897 11.2382 6.80897H5.34617V32.5521H27.6579V6.80897H24.3306C23.8329 6.80897 23.4275 6.40586 23.4275 5.91095C23.4275 5.41605 23.8329 5.01294 24.3306 5.01294H28.561C29.0586 5.01294 29.464 5.41605 29.464 5.91095V33.4501C29.464 33.945 29.0586 34.3481 28.561 34.3481" fill="white"/>
<path d="M21.4809 8.82049H11.5231C11.0254 8.82049 10.6201 8.41738 10.6201 7.92247V3.68384C10.6201 3.18894 11.0254 2.78583 11.5231 2.78583H21.4809C21.9786 2.78583 22.384 3.18894 22.384 3.68384V7.92247C22.384 8.41738 21.9786 8.82049 21.4809 8.82049ZM12.4262 7.02446H20.5779V4.58186H12.4262V7.02446Z" fill="white"/>
<path d="M18.9884 4.27056C18.4907 4.27056 18.0854 3.86745 18.0854 3.37254C18.0854 2.50247 17.3749 1.79603 16.5 1.79603C15.625 1.79603 14.9146 2.50247 14.9146 3.37254C14.9146 3.86745 14.5092 4.27056 14.0115 4.27056C13.5138 4.27056 13.1085 3.86745 13.1085 3.37254C13.1085 1.51266 14.6296 0 16.5 0C18.3703 0 19.8915 1.51266 19.8915 3.37254C19.8915 3.86745 19.4861 4.27056 18.9884 4.27056Z" fill="white"/>
<path d="M22.9057 13.554H10.0983C9.60057 13.554 9.19519 13.1509 9.19519 12.656C9.19519 12.1611 9.60057 11.758 10.0983 11.758H22.9057C23.4034 11.758 23.8088 12.1611 23.8088 12.656C23.8088 13.1509 23.4034 13.554 22.9057 13.554Z" fill="white"/>
<path d="M22.9057 16.9465H10.0983C9.60057 16.9465 9.19519 16.5434 9.19519 16.0485C9.19519 15.5536 9.60057 15.1505 10.0983 15.1505H22.9057C23.4034 15.1505 23.8088 15.5536 23.8088 16.0485C23.8088 16.5434 23.4034 16.9465 22.9057 16.9465Z" fill="white"/>
</svg>
