<svg width="42" height="39" viewBox="0 0 42 39" fill="none" xmlns="http://www.w3.org/2000/svg">
<path d="M41.0888 10.2579H34.3703C34.3014 10.2579 34.2326 10.2657 34.1637 10.2815C34.0584 10.305 31.9242 10.8121 31.0535 12.7697L30.8429 12.695C29.6887 12.2862 28.4819 12.0818 27.267 12.0818C23.0107 12.0818 19.8802 14.5661 19.5401 14.8451L18.6896 15.4701C17.2479 14.5582 14.7857 13.4143 11.4811 13.4143C11.3758 13.4143 11.2705 13.4183 11.1652 13.4222C10.5294 10.9222 7.94967 10.305 7.83627 10.2815C7.76743 10.2657 7.69858 10.2579 7.62974 10.2579H0.911195C0.409025 10.2579 0 10.6549 0 11.1423V26.1895C0 26.6769 0.409025 27.0739 0.911195 27.0739H4.27654L15.6887 38.151C16.2517 38.6973 16.9968 39 17.7946 39C18.5924 39 19.3376 38.6973 19.9005 38.151C20.3419 37.7225 20.6173 37.1879 20.7226 36.6337C20.9939 36.7123 21.2815 36.7516 21.569 36.7516C22.3627 36.7516 23.1119 36.4489 23.6749 35.9065C24.1082 35.4859 24.3917 34.9591 24.501 34.3892C24.7723 34.4678 25.0558 34.5071 25.3474 34.5071C26.1412 34.5071 26.8904 34.2083 27.4533 33.662C27.8866 33.2414 28.1701 32.7146 28.2754 32.1447C28.5467 32.2233 28.8302 32.2626 29.1218 32.2626C29.9155 32.2626 30.6647 31.9599 31.2277 31.4135C32.066 30.5999 32.2927 29.4167 31.9202 28.3986L36.8285 26.6376C36.9905 26.901 37.282 27.07 37.602 27.07H41.0888C41.591 27.07 42 26.673 42 26.1855V11.1423C42 10.6549 41.591 10.2579 41.0888 10.2579ZM20.6618 16.2366C20.6618 16.2366 20.6942 16.2131 20.7064 16.2013C20.7347 16.1777 23.5493 13.8506 27.2629 13.8506C28.2673 13.8506 29.2635 14.0236 30.2112 14.3577L31.013 14.6486L36.0347 25.0417L30.8024 26.9167L25.6228 21.8499C25.6957 21.8499 25.7726 21.8538 25.8455 21.8538C27.1091 21.8538 28.5751 21.5354 30.0613 20.5212C30.4744 20.2422 30.5716 19.6879 30.28 19.2909C29.9925 18.8899 29.4215 18.7956 29.0124 19.0786C26.0764 21.0833 23.2172 19.4914 23.0917 19.4206C23.0755 19.4088 23.0553 19.4049 23.0391 19.397C23.0107 19.3813 22.9824 19.3656 22.95 19.3577C22.9216 19.3459 22.8892 19.3381 22.8609 19.3302C22.8366 19.3223 22.8082 19.3145 22.7799 19.3105C22.7475 19.3066 22.7151 19.3027 22.6786 19.3027C22.6584 19.3027 22.6422 19.2988 22.6219 19.2988C22.6138 19.2988 22.6098 19.2988 22.6017 19.2988C22.5612 19.2988 22.5247 19.3066 22.4842 19.3105C22.464 19.3105 22.4397 19.3145 22.4194 19.3184C22.3749 19.3302 22.3303 19.342 22.2858 19.3616C22.2736 19.3656 22.2615 19.3695 22.2493 19.3734H22.2372V19.3813L17.3694 21.4882C17.3694 21.4882 17.3329 21.5039 17.3127 21.5157C16.7538 21.8027 16.0249 21.5786 15.7292 21.044C15.5835 20.7767 15.5511 20.4662 15.6442 20.1793C15.7373 19.8884 15.9398 19.6525 16.2152 19.511C16.2598 19.4874 16.3003 19.4638 16.3408 19.4324L20.6537 16.2484L20.6618 16.2366ZM1.82239 12.0267H7.50419C7.84437 12.1289 9.035 12.5692 9.38733 13.7838L3.82297 25.305H1.82239V12.0267ZM29.9398 30.1635C29.5025 30.5881 28.7411 30.5881 28.3037 30.1635L23.3104 25.3168C22.954 24.9709 22.3789 24.9709 22.0226 25.3168L21.9011 25.4348C21.731 25.5999 21.6338 25.8239 21.6338 26.0598C21.6338 26.2956 21.731 26.5197 21.9011 26.6848L26.1655 30.8239C26.3841 31.0362 26.5056 31.3153 26.5056 31.6179C26.5056 31.9206 26.3841 32.1997 26.1655 32.412C25.7281 32.8365 24.9667 32.8365 24.5294 32.412L20.265 28.2728C19.9248 27.9426 19.3173 27.9426 18.9771 28.2728L18.8557 28.3907C18.4993 28.7366 18.4993 29.2948 18.8557 29.6407L22.387 33.0684C22.6057 33.2807 22.7232 33.5598 22.7272 33.8624C22.7272 34.1612 22.6057 34.4442 22.387 34.6565C21.9497 35.081 21.1883 35.081 20.7509 34.6565L17.2196 31.2288C16.8632 30.8829 16.2881 30.8829 15.9317 31.2288L15.8102 31.3467C15.6402 31.5118 15.543 31.7359 15.543 31.9717C15.543 32.2076 15.6402 32.4316 15.8102 32.5967L18.6127 35.3168C19.0622 35.7532 19.0622 36.4646 18.6127 36.9049C18.1753 37.3294 17.4139 37.3294 16.9766 36.9049L5.57651 25.8396L10.7116 15.2107C10.9708 15.195 11.23 15.1832 11.4811 15.1832C13.9312 15.1832 15.8588 15.9261 17.1264 16.6258L15.304 17.9701C14.6358 18.3357 14.1417 18.9293 13.915 19.6447C13.6801 20.3876 13.757 21.1738 14.1296 21.8577C14.648 22.8129 15.6644 23.4025 16.7781 23.4025C17.252 23.4025 17.7258 23.2925 18.1469 23.0802L22.387 21.2445L29.9277 28.5637L29.9398 28.5755C30.3894 29.0118 30.3894 29.7233 29.9398 30.1635ZM40.1776 25.305H38.1811L32.6167 13.7838C32.969 12.5613 34.1678 12.125 34.4958 12.0267H40.1776V25.305Z" fill="white"/>
<path d="M18.2522 10.765C17.8716 10.765 17.4909 10.6235 17.1993 10.3404L13.5505 6.79877C12.9673 6.23273 12.9673 5.31685 13.5505 4.75474C14.1336 4.1887 15.0732 4.1887 15.6563 4.75474L18.2522 7.27439L24.7197 0.992949C25.3029 0.426911 26.2465 0.426911 26.8296 0.992949C27.4128 1.55899 27.4128 2.47487 26.8296 3.03697L19.3052 10.3404C19.0136 10.6235 18.6329 10.765 18.2522 10.765Z" fill="white"/>
</svg>
