<svg width="39" height="35" viewBox="0 0 39 35" fill="none" xmlns="http://www.w3.org/2000/svg">
<path d="M33.8593 35H5.14074C2.30617 35 0 32.7589 0 29.9994C0 29.5049 0.413717 29.1022 0.921647 29.1022H38.0784C38.5863 29.1022 39 29.5049 39 29.9994C39 32.7589 36.6938 35 33.8593 35ZM1.97437 30.8966C2.3758 32.2285 3.64153 33.2055 5.14074 33.2055H33.8593C35.3585 33.2055 36.6242 32.2285 37.0256 30.8966H1.97437Z" fill="white"/>
<path d="M10.5109 4.78125H3.31792C2.80999 4.78125 2.39627 5.18401 2.39627 5.67848V29.4053C2.39627 29.8997 2.80999 30.3025 3.31792 30.3025C3.82585 30.3025 4.23956 29.8997 4.23956 29.4053V6.57571H9.13453C9.53596 5.93369 9.99474 5.33554 10.5109 4.78125Z" fill="white"/>
<path d="M35.678 4.78125H28.485C29.0011 5.33554 29.4599 5.93369 29.8613 6.57571H34.7563V29.4053C34.7563 29.8997 35.17 30.3025 35.678 30.3025C36.1859 30.3025 36.5996 29.8997 36.5996 29.4053V5.67848C36.5996 5.18401 36.1859 4.78125 35.678 4.78125Z" fill="white"/>
<path d="M19.498 25.3976C12.305 25.3976 6.45563 19.6992 6.45563 12.7008C6.45563 5.7024 12.3091 0 19.498 0C26.6868 0 32.5403 5.69842 32.5403 12.6968C32.5403 15.6756 31.4548 18.5747 29.4886 20.8556C29.2469 21.1348 28.8496 21.2425 28.4973 21.1308L25.5235 20.1777L26.3673 22.67C26.5025 23.0768 26.3304 23.5194 25.9495 23.7308C23.9915 24.8194 21.7591 25.3936 19.5021 25.3936M19.5021 1.79048C13.325 1.79048 8.30302 6.68338 8.30302 12.6928C8.30302 18.7023 13.3291 23.5952 19.5021 23.5952C21.1897 23.5952 22.8609 23.2203 24.3724 22.5066L23.205 19.0492C23.0985 18.7262 23.1845 18.3753 23.4303 18.136C23.6761 17.8968 24.0407 17.813 24.3683 17.9167L28.4646 19.2287C29.9105 17.3505 30.7011 15.0496 30.7011 12.6928C30.7011 6.67939 25.675 1.79048 19.5021 1.79048Z" fill="white"/>
<path d="M19.4979 25.0547C19.3259 25.0547 19.1498 25.0068 18.9982 24.9111C15.5492 22.7458 13.3209 17.9486 13.3209 12.6968C13.3209 7.445 15.5533 2.65179 18.9982 0.482485C19.3013 0.291076 19.6946 0.291076 19.9977 0.482485C23.4467 2.65179 25.675 7.445 25.675 12.6968C25.675 17.9486 23.4467 22.7458 19.9977 24.9111C19.8461 25.0068 19.67 25.0547 19.4979 25.0547ZM19.4979 2.33278C16.8477 4.32264 15.1642 8.30634 15.1642 12.6968C15.1642 17.0872 16.8477 21.071 19.4979 23.0608C22.1482 21.071 23.8317 17.0872 23.8317 12.6968C23.8317 8.30634 22.1482 4.32264 19.4979 2.33278Z" fill="white"/>
<path d="M31.1557 13.594H7.84422C7.33629 13.594 6.92258 13.1913 6.92258 12.6968C6.92258 12.2023 7.33629 11.7996 7.84422 11.7996H31.1557C31.6637 11.7996 32.0774 12.2023 32.0774 12.6968C32.0774 13.1913 31.6637 13.594 31.1557 13.594Z" fill="white"/>
<path d="M26.6622 27.3237C26.6376 27.3237 26.609 27.3237 26.5844 27.3237C26.2157 27.2918 25.9044 27.0525 25.7856 26.7096L23.2009 19.0612C23.0944 18.7382 23.1804 18.3872 23.4262 18.148C23.672 17.9087 24.0365 17.825 24.3642 17.9287L32.2208 20.4449C32.573 20.5566 32.8188 20.8636 32.8516 21.2225C32.8843 21.5814 32.6918 21.9243 32.3641 22.0918L29.1691 23.7427L27.4733 26.8531C27.3135 27.1482 26.9981 27.3277 26.6581 27.3277M25.5194 20.1897L26.8588 24.1535L27.674 22.6581C27.76 22.4986 27.8952 22.371 28.0549 22.2872L29.591 21.4937L25.5194 20.1897Z" fill="white"/>
<path d="M30.6314 26.0516C30.3939 26.0516 30.1604 25.9639 29.9801 25.7884L28.3662 24.2172C28.0058 23.8663 28.0058 23.3001 28.3662 22.9492C28.7267 22.5982 29.3084 22.5982 29.6688 22.9492L31.2827 24.5203C31.6432 24.8712 31.6432 25.4375 31.2827 25.7884C31.1025 25.9639 30.869 26.0516 30.6314 26.0516Z" fill="white"/>
</svg>
