<svg width="150" height="150" viewBox="0 0 150 150" fill="none" xmlns="http://www.w3.org/2000/svg">
<path fill-rule="evenodd" clip-rule="evenodd" d="M72.4141 10.9749C73.9128 9.68838 76.1262 9.68838 77.6249 10.9749C86.9044 18.9405 99.9287 23.9943 114.475 24.0594C114.566 24.0532 114.658 24.05 114.75 24.05C119.051 24.05 123.219 23.617 127.187 22.7935C128.365 22.5489 129.591 22.8479 130.524 23.6075C131.458 24.3671 132 25.5066 132 26.71V67.05C132 67.1357 131.997 67.2214 131.991 67.3069C130.763 86.3935 126.959 100.84 119.876 109.755C112.715 119.978 100.615 129.134 84.0775 137.398L84.0592 137.407L81.8092 138.517L81.7776 138.533C77.4815 140.605 72.4365 140.468 68.2636 138.176C49.4917 127.867 36.4665 118.429 29.9358 109.768C22.7424 100.232 18.9598 85.8426 18.0246 67.251C18.0212 67.184 18.0195 67.117 18.0195 67.05V26.72C18.0195 25.5181 18.5599 24.38 19.4913 23.6203C20.4226 22.8607 21.6462 22.5601 22.8235 22.8016C26.8031 23.6182 30.9737 24.06 35.2695 24.06C49.9313 24.06 63.0748 18.992 72.4141 10.9749ZM115.052 32.0494C114.955 32.0564 114.858 32.06 114.76 32.06C99.561 32.06 85.6151 27.2178 75.0194 19.1515C64.422 27.2182 50.4675 32.06 35.2695 32.06C32.1225 32.06 29.0324 31.8498 26.0195 31.4492V66.9489C26.9328 84.8832 30.5672 97.3213 36.3228 104.951L36.3232 104.952C41.7525 112.151 53.4471 120.913 72.1149 131.164L72.1154 131.164C74.018 132.209 76.3266 132.274 78.2875 131.334L80.5016 130.242C80.5047 130.24 80.5079 130.239 80.5111 130.237C96.5292 122.232 107.32 113.785 113.387 105.074C113.439 105 113.492 104.928 113.548 104.858C119.077 97.96 122.784 85.6065 124 66.9207V31.4437C121.08 31.8316 118.091 32.0366 115.052 32.0494Z" fill="black"/>
<path fill-rule="evenodd" clip-rule="evenodd" d="M107.156 61.2241L71.3534 98.0012L46.374 71.8729L52.1566 66.3446L71.4055 86.4789L101.423 55.6437L107.156 61.2241Z" fill="black"/>
</svg>
