<svg width="150" height="150" viewBox="0 0 150 150" fill="none" xmlns="http://www.w3.org/2000/svg">
<path fill-rule="evenodd" clip-rule="evenodd" d="M63 18C51.402 18 42 27.402 42 39C42 50.598 51.402 60 63 60C74.598 60 84 50.598 84 39C84 27.402 74.598 18 63 18ZM34 39C34 22.9837 46.9837 10 63 10C79.0163 10 92 22.9837 92 39C92 55.0163 79.0163 68 63 68C46.9837 68 34 55.0163 34 39Z" fill="black"/>
<path fill-rule="evenodd" clip-rule="evenodd" d="M44 86C29.6391 86 18 97.6391 18 112V128H10V112C10 93.2209 25.2209 78 44 78H76V86H44Z" fill="black"/>
<path fill-rule="evenodd" clip-rule="evenodd" d="M117.388 93.3084L93.3483 117.348L87.6914 111.692L111.731 87.6516L117.388 93.3084Z" fill="black"/>
<path fill-rule="evenodd" clip-rule="evenodd" d="M111.731 117.348L87.6914 93.3084L93.3483 87.6516L117.388 111.692L111.731 117.348Z" fill="black"/>
<path fill-rule="evenodd" clip-rule="evenodd" d="M102.5 73C86.2076 73 73 86.2076 73 102.5C73 118.792 86.2076 132 102.5 132C118.792 132 132 118.792 132 102.5C132 86.2076 118.792 73 102.5 73ZM65 102.5C65 81.7893 81.7893 65 102.5 65C123.211 65 140 81.7893 140 102.5C140 123.211 123.211 140 102.5 140C81.7893 140 65 123.211 65 102.5Z" fill="black"/>
</svg>
