<svg width="150" height="150" viewBox="0 0 150 150" fill="none" xmlns="http://www.w3.org/2000/svg">
<path fill-rule="evenodd" clip-rule="evenodd" d="M14 19C14 14.5809 17.5809 11 22 11H100C104.419 11 108 14.5809 108 19V52H100V19H22V116H59V124H22C17.5809 124 14 120.419 14 116V19Z" fill="black"/>
<path fill-rule="evenodd" clip-rule="evenodd" d="M35.5 44C35.5 41.7909 37.2909 40 39.5 40H82.5C84.7091 40 86.5 41.7909 86.5 44C86.5 46.2091 84.7091 48 82.5 48H39.5C37.2909 48 35.5 46.2091 35.5 44Z" fill="black"/>
<path fill-rule="evenodd" clip-rule="evenodd" d="M35.5 65C35.5 62.7909 37.2909 61 39.5 61H62.5C64.7091 61 66.5 62.7909 66.5 65C66.5 67.2091 64.7091 69 62.5 69H39.5C37.2909 69 35.5 67.2091 35.5 65Z" fill="black"/>
<path fill-rule="evenodd" clip-rule="evenodd" d="M100 75C87.2975 75 77 85.2975 77 98C77 110.703 87.2975 121 100 121C112.703 121 123 110.703 123 98C123 85.2975 112.703 75 100 75ZM69 98C69 80.8792 82.8792 67 100 67C117.121 67 131 80.8792 131 98C131 115.121 117.121 129 100 129C82.8792 129 69 115.121 69 98Z" fill="black"/>
<path fill-rule="evenodd" clip-rule="evenodd" d="M115.069 115.278C116.572 113.659 119.103 113.566 120.722 115.069L134.722 128.069C136.341 129.572 136.434 132.103 134.931 133.722C133.428 135.341 130.897 135.434 129.278 133.931L115.278 120.931C113.659 119.428 113.566 116.897 115.069 115.278Z" fill="black"/>
</svg>
