<svg width="150" height="150" viewBox="0 0 150 150" fill="none" xmlns="http://www.w3.org/2000/svg">
<path fill-rule="evenodd" clip-rule="evenodd" d="M100.434 66.1124C104.595 65.4575 108.011 67.9073 110.196 71.1782C110.298 71.331 110.389 71.4906 110.47 71.656L116.553 84.2133L129.905 86.016C130.028 86.0326 130.15 86.0548 130.271 86.0828C133.981 86.9404 137.417 89.0312 138.607 92.7919C139.785 96.5153 138.233 100.228 135.762 103.145C135.579 103.361 135.378 103.553 135.162 103.721L126.113 112.893L128.966 126.605C128.982 126.682 128.996 126.759 129.007 126.837C129.546 130.495 128.029 134.211 125.016 136.452C124.119 137.119 123.13 137.63 122.072 137.976C119.518 138.951 116.731 138.681 114.069 137.706C113.78 137.604 113.49 137.493 113.2 137.372C113.085 137.324 112.974 137.272 112.867 137.215C112.523 137.06 112.182 136.894 111.845 136.719L111.822 136.707L111.808 136.7L111.768 136.679L111.63 136.608C111.57 136.577 111.5 136.541 111.42 136.5C111.346 136.462 111.263 136.419 111.172 136.373C110.795 136.179 110.283 135.917 109.683 135.609C108.482 134.995 106.931 134.202 105.395 133.417C103.86 132.632 102.341 131.856 101.206 131.276L101.192 131.268L90.1211 137.249C90.0789 137.272 90.0363 137.294 89.9933 137.315C86.1259 139.228 81.5396 139.895 78.0403 137.136C74.6055 134.427 74.0345 129.821 74.8011 125.492L74.8024 125.485C74.857 125.18 75.4353 121.726 76.0095 118.29C76.2944 116.584 76.5756 114.9 76.7856 113.642L76.7952 113.584L76.7784 113.567C75.8907 112.681 74.7021 111.494 73.4986 110.292C71.0801 107.877 68.6409 105.443 68.4124 105.219C65.2579 102.135 63.1399 98.0632 64.339 93.8712C65.5478 89.6456 69.5228 87.3784 73.7812 86.5445C73.8288 86.5352 73.8767 86.5267 73.9247 86.5191L86.3095 84.5596L86.3602 84.4589C86.9456 83.2964 87.7289 81.7406 88.5207 80.1678C89.3125 78.5948 90.1125 77.005 90.7313 75.7744C91.0408 75.159 91.3046 74.634 91.4993 74.2461L91.7356 73.7749L91.8075 73.6309L91.8297 73.5863L91.8364 73.5727L91.8389 73.5677L91.8431 73.5592C93.6727 69.8536 96.5301 66.7268 100.434 66.1124ZM88.9598 88.19L92.5323 89.9893C91.9532 91.1389 90.8563 91.9397 89.5849 92.1409L75.2516 94.4087C72.4209 94.9779 72.0467 96.0149 72.0305 96.0713C72.0048 96.1613 71.7912 97.3344 74.0061 99.4998L74.0083 99.502C74.2668 99.7551 76.7585 102.242 79.151 104.631C80.355 105.833 81.5439 107.02 82.4318 107.907L83.905 109.378L83.9063 109.38C83.9064 109.38 83.9067 109.38 81.0798 112.21C85.0253 112.868 85.0253 112.868 85.0253 112.868L84.6765 114.959C84.4664 116.217 84.1852 117.902 83.9001 119.608C83.3371 122.977 82.7484 126.495 82.6781 126.89C82.6778 126.892 82.6775 126.893 82.6771 126.895L78.7398 126.19L82.6785 126.888C82.6784 126.888 82.6783 126.889 82.6781 126.89C82.4136 128.384 82.4735 129.422 82.6269 130.065C82.7735 130.68 82.9748 130.839 82.9941 130.854L82.995 130.855C83.01 130.867 83.1648 130.993 83.6808 130.98C84.2403 130.966 85.1418 130.782 86.3861 130.174L86.3185 130.211L88.2198 133.73L86.4462 130.145C86.4261 130.155 86.4061 130.164 86.3861 130.174L99.2385 123.231C100.396 122.605 101.788 122.589 102.959 123.188L101.14 126.75C102.959 123.188 102.959 123.188 102.959 123.188L102.962 123.189L104.846 124.152C105.981 124.732 107.501 125.508 109.037 126.293C112.031 127.824 115.158 129.423 115.541 129.624C115.967 129.845 116.353 130.018 116.7 130.152C118.671 130.857 119.758 130.393 120.242 130.033C120.861 129.572 121.179 128.815 121.103 128.089L117.844 112.425C117.571 111.114 117.972 109.754 118.912 108.801L129.952 97.6107C129.953 97.6101 129.954 97.6095 129.954 97.6089C131.195 96.0052 130.989 95.2327 130.98 95.2056C130.966 95.1625 130.907 94.9921 130.573 94.7404C130.232 94.484 129.624 94.1639 128.635 93.917L113.355 91.854C112.025 91.6746 110.875 90.841 110.29 89.634L103.402 75.4164C102.868 74.6661 102.411 74.3017 102.126 74.1409C101.857 73.9894 101.734 74.0063 101.678 74.0151C101.5 74.0432 100.337 74.4264 99.0164 77.1008C98.8463 77.4461 97.2269 80.6647 95.6664 83.7648C94.8744 85.3381 94.0909 86.8942 93.5054 88.057L92.5323 89.9893C92.5322 89.9894 92.5323 89.9893 88.9598 88.19ZM81.0798 112.21L85.0253 112.868C85.2379 111.593 84.8209 110.293 83.9063 109.38L81.0798 112.21Z" fill="black"/>
<path fill-rule="evenodd" clip-rule="evenodd" d="M20 19C20 14.5809 23.5809 11 28 11H94C98.4191 11 102 14.5809 102 19V55.68H94V19H28V127H65.21V135H28C23.5809 135 20 131.419 20 127V19Z" fill="black"/>
<path fill-rule="evenodd" clip-rule="evenodd" d="M48.5 31C50.7091 31 52.5 32.7909 52.5 35V45C52.5 47.2091 50.7091 49 48.5 49C46.2909 49 44.5 47.2091 44.5 45V35C44.5 32.7909 46.2909 31 48.5 31Z" fill="black"/>
<path fill-rule="evenodd" clip-rule="evenodd" d="M75.5 31C77.7091 31 79.5 32.7909 79.5 35V45C79.5 47.2091 77.7091 49 75.5 49C73.2909 49 71.5 47.2091 71.5 45V35C71.5 32.7909 73.2909 31 75.5 31Z" fill="black"/>
<path fill-rule="evenodd" clip-rule="evenodd" d="M75.5 61C77.7091 61 79.5 62.7909 79.5 65V75C79.5 77.2091 77.7091 79 75.5 79C73.2909 79 71.5 77.2091 71.5 75V65C71.5 62.7909 73.2909 61 75.5 61Z" fill="black"/>
<path fill-rule="evenodd" clip-rule="evenodd" d="M48.5 61C50.7091 61 52.5 62.7909 52.5 65V75C52.5 77.2091 50.7091 79 48.5 79C46.2909 79 44.5 77.2091 44.5 75V65C44.5 62.7909 46.2909 61 48.5 61Z" fill="black"/>
<path fill-rule="evenodd" clip-rule="evenodd" d="M48.5 91C50.7091 91 52.5 92.7909 52.5 95V105C52.5 107.209 50.7091 109 48.5 109C46.2909 109 44.5 107.209 44.5 105V95C44.5 92.7909 46.2909 91 48.5 91Z" fill="black"/>
</svg>
