<svg width="150" height="150" viewBox="0 0 150 150" fill="none" xmlns="http://www.w3.org/2000/svg">
<path d="M51 97H18C15.79 97 14 95.21 14 93V18C14 15.79 15.79 14 18 14H126C128.21 14 130 15.79 130 18V59" stroke="black" stroke-width="8" stroke-miterlimit="10" stroke-linecap="square"/>
<path d="M49.5 46C54.4706 46 58.5 41.9706 58.5 37C58.5 32.0294 54.4706 28 49.5 28C44.5294 28 40.5 32.0294 40.5 37C40.5 41.9706 44.5294 46 49.5 46Z" stroke="black" stroke-width="7" stroke-linecap="round" stroke-linejoin="round"/>
<path d="M29.5 70.84V67.17C29.5 61.08 34.38 56.15 40.41 56.15H58.59C64.61 56.15 69.5 61.08 69.5 67.17V70.84" stroke="black" stroke-width="7" stroke-linecap="square" stroke-linejoin="round"/>
<path d="M132.011 104.3C134.241 89.74 123.471 76.01 107.951 73.64C98.0808 72.13 88.6708 75.58 82.5508 82.03" stroke="black" stroke-width="8" stroke-linecap="round" stroke-linejoin="round"/>
<path d="M139.691 99.18L132.321 105.7L125.201 98.62" stroke="black" stroke-width="8" stroke-linecap="round" stroke-linejoin="round"/>
<path d="M74.6107 102.19C72.3807 116.75 83.1507 130.48 98.6707 132.85C108.541 134.36 117.951 130.91 124.071 124.46" stroke="black" stroke-width="8" stroke-linecap="round" stroke-linejoin="round"/>
<path d="M66.9404 107.31L74.3004 100.8L81.4204 107.87" stroke="black" stroke-width="8" stroke-linecap="round" stroke-linejoin="round"/>
</svg>
