<svg width="150" height="150" viewBox="0 0 150 150" fill="none" xmlns="http://www.w3.org/2000/svg">
<path d="M114.75 28.05C119.32 28.05 123.76 27.59 128 26.71V67.05C126.78 86.01 123.01 99.45 116.67 107.36C110.06 116.85 98.5995 125.67 82.2895 133.82L80.0395 134.93C76.9095 136.44 73.2295 136.34 70.1895 134.67C51.4695 124.39 39.1095 115.29 33.1295 107.36C26.6495 98.77 22.9395 85.34 22.0195 67.05V26.72C26.2595 27.59 30.6995 28.06 35.2695 28.06C50.8395 28.06 64.9195 22.68 75.0195 14.01C85.1195 22.68 99.1895 28.06 114.76 28.06L114.75 28.05Z" stroke="black" stroke-width="8" stroke-linejoin="round"/>
<path d="M94 65.4H56C53.7909 65.4 52 67.1909 52 69.4V95C52 97.2091 53.7909 99 56 99H94C96.2091 99 98 97.2091 98 95V69.4C98 67.1909 96.2091 65.4 94 65.4Z" stroke="black" stroke-width="8" stroke-linecap="round" stroke-linejoin="round"/>
<path d="M75.3896 87.42C78.1511 87.42 80.3896 85.1814 80.3896 82.42C80.3896 79.6586 78.1511 77.42 75.3896 77.42C72.6282 77.42 70.3896 79.6586 70.3896 82.42C70.3896 85.1814 72.6282 87.42 75.3896 87.42Z" fill="black"/>
<path d="M61.8398 65.4V56.35C61.8398 48.97 67.8598 43 75.2898 43C82.7198 43 88.7398 48.98 88.7398 56.35V65.4" stroke="black" stroke-width="8" stroke-linecap="round" stroke-linejoin="round"/>
</svg>
