<svg width="150" height="150" viewBox="0 0 150 150" fill="none" xmlns="http://www.w3.org/2000/svg">
<path fill-rule="evenodd" clip-rule="evenodd" d="M18.0996 29.73C18.0996 19.4244 26.567 11.05 36.8896 11.05H113.11C123.419 11.05 131.9 19.4109 131.9 29.73V114.55C131.9 116.759 130.109 118.55 127.9 118.55H22.0996C19.8905 118.55 18.0996 116.759 18.0996 114.55V29.73ZM36.8896 19.05C30.9322 19.05 26.0996 23.8956 26.0996 29.73V110.55H123.9V29.73C123.9 23.8891 119.061 19.05 113.11 19.05H36.8896Z" fill="black"/>
<path fill-rule="evenodd" clip-rule="evenodd" d="M18.3994 74.25C18.3994 72.0409 20.1903 70.25 22.3994 70.25H127.499C129.709 70.25 131.499 72.0409 131.499 74.25C131.499 76.4591 129.709 78.25 127.499 78.25H22.3994C20.1903 78.25 18.3994 76.4591 18.3994 74.25Z" fill="black"/>
<path fill-rule="evenodd" clip-rule="evenodd" d="M18.3994 35.25C18.3994 33.0409 20.1903 31.25 22.3994 31.25H127.499C129.709 31.25 131.499 33.0409 131.499 35.25C131.499 37.4591 129.709 39.25 127.499 39.25H22.3994C20.1903 39.25 18.3994 37.4591 18.3994 35.25Z" fill="black"/>
<path fill-rule="evenodd" clip-rule="evenodd" d="M25.0195 114.73C25.0195 112.521 26.8104 110.73 29.0195 110.73H50.2195C52.4287 110.73 54.2195 112.521 54.2195 114.73V130.33C54.2195 135.256 50.0994 138.99 45.3795 138.99H33.8995C29.1827 138.99 25.0195 135.297 25.0195 130.33V114.73ZM45.3795 130.99C45.6494 130.99 45.873 130.886 46.0246 130.74C46.1732 130.597 46.2195 130.452 46.2195 130.33V118.73H33.0195V130.33C33.0195 130.453 33.0647 130.593 33.2108 130.732C33.3612 130.876 33.5968 130.99 33.8995 130.99H45.3795Z" fill="black"/>
<path fill-rule="evenodd" clip-rule="evenodd" d="M95.6699 114.73C95.6699 112.521 97.4608 110.73 99.6699 110.73H120.87C123.079 110.73 124.87 112.521 124.87 114.73V130.31C124.913 135.284 120.743 138.99 116.03 138.99H104.55C99.8331 138.99 95.6699 135.297 95.6699 130.33V114.73ZM103.67 118.73V130.33C103.67 130.453 103.715 130.593 103.861 130.732C104.012 130.876 104.247 130.99 104.55 130.99H116.03C116.328 130.99 116.555 130.877 116.697 130.74C116.835 130.608 116.871 130.482 116.87 130.377L116.87 130.33V118.73H103.67Z" fill="black"/>
<path d="M43.0997 101.29C47.0375 101.29 50.2297 98.259 50.2297 94.52C50.2297 90.781 47.0375 87.75 43.0997 87.75C39.1619 87.75 35.9697 90.781 35.9697 94.52C35.9697 98.259 39.1619 101.29 43.0997 101.29Z" fill="black"/>
<path d="M106.699 101.29C110.637 101.29 113.829 98.259 113.829 94.52C113.829 90.781 110.637 87.75 106.699 87.75C102.762 87.75 99.5693 90.781 99.5693 94.52C99.5693 98.259 102.762 101.29 106.699 101.29Z" fill="black"/>
</svg>
