<svg width="150" height="150" viewBox="0 0 150 150" fill="none" xmlns="http://www.w3.org/2000/svg">
<path fill-rule="evenodd" clip-rule="evenodd" d="M104 80C91.2975 80 81 90.2975 81 103C81 115.703 91.2975 126 104 126C116.703 126 127 115.703 127 103C127 90.2975 116.703 80 104 80ZM73 103C73 85.8792 86.8792 72 104 72C121.121 72 135 85.8792 135 103C135 120.121 121.121 134 104 134C86.8792 134 73 120.121 73 103Z" fill="black"/>
<path fill-rule="evenodd" clip-rule="evenodd" d="M119.069 120.278C120.572 118.659 123.103 118.566 124.722 120.069L138.722 133.069C140.341 134.572 140.434 137.103 138.931 138.722C137.428 140.341 134.897 140.434 133.278 138.931L119.278 125.931C117.659 124.428 117.566 121.897 119.069 120.278Z" fill="black"/>
<path fill-rule="evenodd" clip-rule="evenodd" d="M20 19C20 14.5809 23.5809 11 28 11H94C98.4191 11 102 14.5809 102 19V55.68H94V19H28V127H72.21V135H28C23.5809 135 20 131.419 20 127V19Z" fill="black"/>
<path fill-rule="evenodd" clip-rule="evenodd" d="M48.5 31C50.7091 31 52.5 32.7909 52.5 35V45C52.5 47.2091 50.7091 49 48.5 49C46.2909 49 44.5 47.2091 44.5 45V35C44.5 32.7909 46.2909 31 48.5 31Z" fill="black"/>
<path fill-rule="evenodd" clip-rule="evenodd" d="M75.5 31C77.7091 31 79.5 32.7909 79.5 35V45C79.5 47.2091 77.7091 49 75.5 49C73.2909 49 71.5 47.2091 71.5 45V35C71.5 32.7909 73.2909 31 75.5 31Z" fill="black"/>
<path fill-rule="evenodd" clip-rule="evenodd" d="M75.5 61C77.7091 61 79.5 62.7909 79.5 65V75C79.5 77.2091 77.7091 79 75.5 79C73.2909 79 71.5 77.2091 71.5 75V65C71.5 62.7909 73.2909 61 75.5 61Z" fill="black"/>
<path fill-rule="evenodd" clip-rule="evenodd" d="M48.5 61C50.7091 61 52.5 62.7909 52.5 65V75C52.5 77.2091 50.7091 79 48.5 79C46.2909 79 44.5 77.2091 44.5 75V65C44.5 62.7909 46.2909 61 48.5 61Z" fill="black"/>
<path fill-rule="evenodd" clip-rule="evenodd" d="M48.5 91C50.7091 91 52.5 92.7909 52.5 95V105C52.5 107.209 50.7091 109 48.5 109C46.2909 109 44.5 107.209 44.5 105V95C44.5 92.7909 46.2909 91 48.5 91Z" fill="black"/>
</svg>
