<svg width="150" height="150" viewBox="0 0 150 150" fill="none" xmlns="http://www.w3.org/2000/svg">
<path fill-rule="evenodd" clip-rule="evenodd" d="M24 22.5C24 18.0817 27.5817 14.5 32 14.5H118C122.418 14.5 126 18.0817 126 22.5V127.5C126 131.918 122.418 135.5 118 135.5H32C27.5817 135.5 24 131.918 24 127.5V22.5ZM118 22.5H32V127.5H118V22.5Z" fill="black"/>
<path fill-rule="evenodd" clip-rule="evenodd" d="M48.5 84C48.5 81.7909 50.2909 80 52.5 80H95.5C97.7091 80 99.5 81.7909 99.5 84C99.5 86.2091 97.7091 88 95.5 88H52.5C50.2909 88 48.5 86.2091 48.5 84Z" fill="black"/>
<path fill-rule="evenodd" clip-rule="evenodd" d="M48.5 105C48.5 102.791 50.2909 101 52.5 101H75.5C77.7091 101 79.5 102.791 79.5 105C79.5 107.209 77.7091 109 75.5 109H52.5C50.2909 109 48.5 107.209 48.5 105Z" fill="black"/>
<path d="M46.2617 47.49H52.5017V66H56.9417V47.49H63.2417V43.8H46.2617V47.49Z" fill="black"/>
<path d="M70.0517 60.3H77.2517L78.8117 66H83.4617L76.3217 43.8H71.1017L63.9917 66H68.4917L70.0517 60.3ZM75.6317 54.42L76.2917 56.85H71.0117L71.6717 54.42C72.3617 52.11 72.9917 49.59 73.5617 47.16H73.6817C74.3717 49.56 74.9417 52.11 75.6317 54.42Z" fill="black"/>
<path d="M85.6405 43.8L91.4905 54.54L85.2505 66H89.9605L92.3305 61.08C92.9005 59.91 93.3805 58.77 93.9505 57.42H94.0705C94.7605 58.77 95.2405 59.91 95.8105 61.08L98.3005 66H103.22L96.9805 54.75L102.83 43.8H98.1505L96.0505 48.36C95.5705 49.41 95.1505 50.46 94.5805 51.87H94.4305C93.7405 50.46 93.2905 49.41 92.7805 48.36L90.5605 43.8H85.6405Z" fill="black"/>
<path fill-rule="evenodd" clip-rule="evenodd" d="M45.7617 43.3H63.7417V47.99H57.4417V66.5H52.0017V47.99H45.7617V43.3ZM46.7617 44.3V46.99H53.0017V65.5H56.4417V46.99H62.7417V44.3H46.7617ZM70.7368 43.3H76.6861L84.1478 66.5H78.4302L76.8702 60.8H70.4333L68.8733 66.5H63.3066L70.7368 43.3ZM71.4666 44.3L64.6769 65.5H68.1102L69.6702 59.8H77.6333L79.1933 65.5H82.7757L75.9573 44.3H71.4666ZM84.7988 43.3H90.8732L93.23 48.1411C93.4602 48.615 93.6784 49.0892 93.9086 49.5894C93.9363 49.6495 93.9641 49.7099 93.9921 49.7708C94.1429 50.0982 94.3006 50.4393 94.4725 50.8032C94.8746 49.8105 94.0933 51.6325 94.4725 50.8032L97.8303 43.3H103.664L97.5497 54.7455L104.07 66.5H97.9931L95.3609 61.299C95.1207 60.8059 94.9035 60.3343 94.6837 59.857C94.479 59.4126 94.272 58.9633 94.042 58.487C93.622 59.4757 93.229 60.3771 92.7807 61.2975L92.78 61.299L90.2746 66.5H84.4089L90.9211 54.54L84.7988 43.3ZM86.4822 44.3L92.0598 54.5399L86.092 65.5H89.6463L91.88 60.863L91.881 60.861C92.4353 59.7231 92.9041 58.6128 93.4635 57.2878L93.6188 56.92H94.3764L94.5157 57.1924C94.9292 58.0014 95.2781 58.7578 95.6103 59.4778C95.829 59.952 96.0405 60.4104 96.2583 60.8577L96.26 60.861L98.6078 65.5H102.371L96.4112 54.7545L101.996 44.3H98.4707L96.5052 48.5679L94.6837 52.5M86.4822 44.3H90.2478L93.6188 53M73.1654 46.66H74.0582L74.1623 47.0218C74.4859 48.1475 74.7831 49.3052 75.0764 50.4478C75.098 50.5317 75.1195 50.6156 75.141 50.6993C75.4562 51.9264 75.769 53.1325 76.1108 54.2769L76.1144 54.2889L76.9456 57.35H70.3578L71.1925 54.2768C71.8783 51.9809 72.5058 49.4721 73.0749 47.0458L73.1654 46.66ZM73.6516 48.9374C73.1888 50.8404 72.6891 52.7605 72.1526 54.5571L71.6656 56.35H75.6378L75.1508 54.5571C74.8034 53.3933 74.4867 52.1715 74.1724 50.9481C74.1512 50.8653 74.1299 50.7825 74.1086 50.6996C73.9574 50.1104 73.8062 49.5216 73.6516 48.9374Z" fill="black"/>
</svg>
