<svg width="150" height="150" viewBox="0 0 150 150" fill="none" xmlns="http://www.w3.org/2000/svg">
<path fill-rule="evenodd" clip-rule="evenodd" d="M50.5 129.5C50.5 127.291 52.2909 125.5 54.5 125.5H95.5C97.7091 125.5 99.5 127.291 99.5 129.5C99.5 131.709 97.7091 133.5 95.5 133.5H54.5C52.2909 133.5 50.5 131.709 50.5 129.5Z" fill="black"/>
<path fill-rule="evenodd" clip-rule="evenodd" d="M79 108.69V131.04H71V108.69H79Z" fill="black"/>
<path fill-rule="evenodd" clip-rule="evenodd" d="M13 25.5C13 21.0817 16.5817 17.5 21 17.5H129C133.418 17.5 137 21.0817 137 25.5V104.5C137 108.918 133.418 112.5 129 112.5H21C16.5817 112.5 13 108.918 13 104.5V25.5ZM129 25.5H21V104.5H129V25.5Z" fill="black"/>
<path fill-rule="evenodd" clip-rule="evenodd" d="M40 61C40 58.7909 41.7909 57 44 57H104C106.209 57 108 58.7909 108 61C108 63.2091 106.209 65 104 65H44C41.7909 65 40 63.2091 40 61Z" fill="black"/>
</svg>
