<svg width="150" height="150" viewBox="0 0 150 150" fill="none" xmlns="http://www.w3.org/2000/svg">
<path d="M66.6 31.55C66.6 31.55 59.38 80.42 92.61 80.42C92.61 80.42 122.48 81.2 119.52 32.33C119.52 32.33 94.52 55.4 66.6 31.55Z" stroke="black" stroke-width="8" stroke-linecap="round" stroke-linejoin="round"/>
<path d="M79.9102 53.55L81.6802 54.72" stroke="black" stroke-width="8" stroke-linecap="round" stroke-linejoin="round"/>
<path d="M103.17 53.55L101.39 54.72" stroke="black" stroke-width="8" stroke-linecap="round" stroke-linejoin="round"/>
<path d="M94.91 41.1C94.97 40.41 95 39.71 95 39C95 25.19 83.81 14 70 14C56.19 14 45 25.19 45 39C45 52.81 55.86 63.66 69.39 63.98" stroke="black" stroke-width="8" stroke-linecap="round" stroke-linejoin="round"/>
<path d="M104 82H50C33.43 82 20 95.43 20 112V124" stroke="black" stroke-width="8" stroke-linecap="square" stroke-linejoin="round"/>
<path d="M127.53 91.78L92.2002 127.11" stroke="black" stroke-width="8.48" stroke-linejoin="round"/>
<path d="M109.5 135C124.136 135 136 123.136 136 108.5C136 93.8645 124.136 82 109.5 82C94.8645 82 83 93.8645 83 108.5C83 123.136 94.8645 135 109.5 135Z" stroke="black" stroke-width="8.48" stroke-linecap="round" stroke-linejoin="round"/>
</svg>
