<svg width="150" height="150" viewBox="0 0 150 150" fill="none" xmlns="http://www.w3.org/2000/svg">
<path fill-rule="evenodd" clip-rule="evenodd" d="M44.2303 21.9548C45.7685 23.3743 45.8648 25.7721 44.4452 27.3103C36.5727 35.8412 31.79 47.1639 31.79 59.61C31.79 86.0309 53.4369 107.52 80.23 107.52C93.6167 107.52 105.729 102.149 114.494 93.4759C115.982 92.0037 118.382 92.0164 119.854 93.5044C121.326 94.9923 121.314 97.392 119.826 98.8642C109.691 108.891 95.6832 115.1 80.23 115.1C49.323 115.1 24.21 90.2892 24.21 59.61C24.21 45.1762 29.7672 32.0389 38.8747 22.1697C40.2942 20.6315 42.692 20.5352 44.2303 21.9548Z" fill="black"/>
<path fill-rule="evenodd" clip-rule="evenodd" d="M30.9044 34.0458C32.3869 32.5681 34.7866 32.5719 36.2643 34.0544L104.734 102.744C106.212 104.227 106.208 106.627 104.726 108.104C103.243 109.582 100.844 109.578 99.3658 108.096L30.8958 39.4056C29.4181 37.9232 29.4219 35.5235 30.9044 34.0458Z" fill="black"/>
<path fill-rule="evenodd" clip-rule="evenodd" d="M91.0996 51.513C92.5284 53.0426 92.4466 55.441 90.9169 56.8697L86.2169 61.2597C84.6872 62.6885 82.2889 62.6067 80.8601 61.0771C79.4314 59.5474 79.5131 57.1491 81.0428 55.7203L85.7428 51.3303C87.2725 49.9015 89.6708 49.9833 91.0996 51.513Z" fill="black"/>
<path d="M109.59 41.9C109.59 46.46 105.9 50.15 101.34 50.15C96.7798 50.15 93.0898 46.46 93.0898 41.9C93.0898 37.34 96.7798 33.65 101.34 33.65C105.9 33.65 109.59 37.34 109.59 41.9Z" fill="black"/>
<path fill-rule="evenodd" clip-rule="evenodd" d="M71.4397 109.49C73.4942 109.49 75.1597 111.156 75.1597 113.21V134.21C75.1597 136.265 73.4942 137.93 71.4397 137.93C69.3852 137.93 67.7197 136.265 67.7197 134.21V113.21C67.7197 111.156 69.3852 109.49 71.4397 109.49Z" fill="black"/>
<path fill-rule="evenodd" clip-rule="evenodd" d="M47.7598 135C47.7598 132.907 49.4566 131.21 51.5498 131.21H91.3398C93.4329 131.21 95.1298 132.907 95.1298 135C95.1298 137.093 93.4329 138.79 91.3398 138.79H51.5498C49.4566 138.79 47.7598 137.093 47.7598 135Z" fill="black"/>
<path fill-rule="evenodd" clip-rule="evenodd" d="M35.6429 13.3176C37.1243 11.8389 39.524 11.8411 41.0027 13.3226L126.243 98.7226C127.721 100.204 127.719 102.604 126.238 104.082C124.756 105.561 122.357 105.559 120.878 104.077L35.6378 18.6774C34.1591 17.196 34.1614 14.7963 35.6429 13.3176Z" fill="black"/>
</svg>
