<svg width="150" height="150" viewBox="0 0 150 150" fill="none" xmlns="http://www.w3.org/2000/svg">
<path fill-rule="evenodd" clip-rule="evenodd" d="M24.5 48C22.8431 48 21.5 49.3431 21.5 51V61C21.5 62.6569 22.8431 64 24.5 64H125.5C127.157 64 128.5 62.6569 128.5 61V51C128.5 49.3431 127.157 48 125.5 48H24.5ZM13.5 51C13.5 44.9249 18.4249 40 24.5 40H125.5C131.575 40 136.5 44.9249 136.5 51V61C136.5 67.0751 131.575 72 125.5 72H24.5C18.4249 72 13.5 67.0751 13.5 61V51Z" fill="black"/>
<path fill-rule="evenodd" clip-rule="evenodd" d="M27 65C29.2091 65 31 66.7909 31 69V130H119V69C119 66.7909 120.791 65 123 65C125.209 65 127 66.7909 127 69V130C127 134.419 123.419 138 119 138H31C26.5809 138 23 134.419 23 130V69C23 66.7909 24.7909 65 27 65Z" fill="black"/>
<path fill-rule="evenodd" clip-rule="evenodd" d="M59.5 21C54.5391 21 50.5 25.0391 50.5 30V31C50.5 35.9609 54.5391 40 59.5 40H71V30C71 25.0391 66.9609 21 62 21H59.5ZM42.5 30C42.5 20.6209 50.1209 13 59.5 13H62C71.3791 13 79 20.6209 79 30V44C79 46.2091 77.2091 48 75 48H59.5C50.1209 48 42.5 40.3791 42.5 31V30Z" fill="black"/>
<path fill-rule="evenodd" clip-rule="evenodd" d="M90.5 40C95.4609 40 99.5 35.9609 99.5 31V30C99.5 25.0391 95.4609 21 90.5 21H88C83.0391 21 79 25.0391 79 30V40H90.5ZM107.5 31C107.5 40.3791 99.8791 48 90.5 48L75 48C72.7909 48 71 46.2091 71 44V30C71 20.6209 78.6209 13 88 13H90.5C99.8791 13 107.5 20.6209 107.5 30V31Z" fill="black"/>
<path fill-rule="evenodd" clip-rule="evenodd" d="M75.0144 86.5935C80.0028 81.8359 87.9164 81.8023 92.9568 86.4737C93.0982 86.5838 93.2328 86.7038 93.3595 86.8334C98.4096 91.998 98.4096 100.102 93.3595 105.267C93.3234 105.304 93.2866 105.34 93.249 105.375L77.779 120.015C76.2367 121.475 73.8226 121.475 72.2802 120.015L56.8102 105.375C56.7727 105.34 56.7358 105.304 56.6997 105.267C51.6496 100.102 51.6496 91.998 56.6997 86.8334C56.7114 86.8214 56.7233 86.8094 56.7352 86.7976C61.7507 81.7963 69.9105 81.7351 75.0144 86.5935ZM69.9989 92.9419L69.5114 92.4003C67.5391 90.5118 64.3379 90.5334 62.4017 92.4449C60.4252 94.4846 60.4156 97.5752 62.3728 99.6251L75.0296 111.603L87.6864 99.6251C89.5792 97.6427 89.6325 94.6869 87.8463 92.6496C87.7788 92.591 87.713 92.5299 87.6492 92.4664C85.6992 90.5275 82.4833 90.5115 80.5199 92.398C80.1669 92.7902 79.8542 93.1371 79.54 93.4791L78.9466 94.2849L78.394 95.1621C77.6616 96.3247 76.3837 97.03 75.0096 97.03C73.6356 97.03 72.3577 96.3247 71.6252 95.1622L71.0595 94.2642C71.0182 94.2146 70.9702 94.1552 70.9189 94.0878C70.8669 94.0195 70.8105 93.9419 70.7521 93.855L69.9989 92.9419Z" fill="black"/>
</svg>
