<svg width="150" height="150" viewBox="0 0 150 150" fill="none" xmlns="http://www.w3.org/2000/svg">
<path fill-rule="evenodd" clip-rule="evenodd" d="M77 99.8C77 95.3817 80.5817 91.8 85 91.8H132C136.418 91.8 140 95.3817 140 99.8V132C140 136.418 136.418 140 132 140H85C80.5817 140 77 136.418 77 132V99.8ZM132 99.8H85V132H132V99.8Z" fill="black"/>
<path d="M108.96 122.34C112.401 122.34 115.19 119.573 115.19 116.16C115.19 112.747 112.401 109.98 108.96 109.98C105.52 109.98 102.73 112.747 102.73 116.16C102.73 119.573 105.52 122.34 108.96 122.34Z" fill="black"/>
<path fill-rule="evenodd" clip-rule="evenodd" d="M108.84 73C102.146 73 96.7598 78.3919 96.7598 84.98V95.8C96.7598 98.0091 94.9689 99.8 92.7598 99.8C90.5506 99.8 88.7598 98.0091 88.7598 95.8V84.98C88.7598 73.9282 97.7734 65 108.84 65C119.904 65 128.92 73.9165 128.92 84.98V95.8C128.92 98.0091 127.129 99.8 124.92 99.8C122.711 99.8 120.92 98.0091 120.92 95.8V84.98C120.92 78.3835 115.535 73 108.84 73Z" fill="black"/>
<path fill-rule="evenodd" clip-rule="evenodd" d="M133 56H15V48H133V56Z" fill="black"/>
<path fill-rule="evenodd" clip-rule="evenodd" d="M26 33C21.5791 33 18 36.5791 18 41V100C18 104.421 21.5791 108 26 108H65V116H26C17.1609 116 10 108.839 10 100V41C10 32.1609 17.1609 25 26 25H117C125.839 25 133 32.1609 133 41V56H125V41C125 36.5791 121.421 33 117 33H26Z" fill="black"/>
<path d="M45 88H29C27.3431 88 26 89.3431 26 91V97C26 98.6569 27.3431 100 29 100H45C46.6569 100 48 98.6569 48 97V91C48 89.3431 46.6569 88 45 88Z" fill="black"/>
</svg>
