<svg width="150" height="150" viewBox="0 0 150 150" fill="none" xmlns="http://www.w3.org/2000/svg">
<path fill-rule="evenodd" clip-rule="evenodd" d="M57.5498 122.68C55.6168 122.68 54.0498 124.247 54.0498 126.18C54.0498 128.113 55.6168 129.68 57.5498 129.68C59.4828 129.68 61.0498 128.113 61.0498 126.18C61.0498 124.247 59.4828 122.68 57.5498 122.68ZM46.0498 126.18C46.0498 119.829 51.1985 114.68 57.5498 114.68C63.9011 114.68 69.0498 119.829 69.0498 126.18C69.0498 132.531 63.9011 137.68 57.5498 137.68C51.1985 137.68 46.0498 132.531 46.0498 126.18Z" fill="black"/>
<path fill-rule="evenodd" clip-rule="evenodd" d="M106.35 122.68C104.417 122.68 102.85 124.247 102.85 126.18C102.85 128.113 104.417 129.68 106.35 129.68C108.283 129.68 109.85 128.113 109.85 126.18C109.85 124.247 108.283 122.68 106.35 122.68ZM94.8496 126.18C94.8496 119.829 99.9983 114.68 106.35 114.68C112.701 114.68 117.85 119.829 117.85 126.18C117.85 132.531 112.701 137.68 106.35 137.68C99.9983 137.68 94.8496 132.531 94.8496 126.18Z" fill="black"/>
<path fill-rule="evenodd" clip-rule="evenodd" d="M7 16.5C7 14.2909 8.79086 12.5 11 12.5H29.01C30.7958 12.5 32.3653 13.6837 32.856 15.4008L46.406 62.8108C47.0131 64.9349 45.7833 67.1489 43.6592 67.756C41.5351 68.3631 39.3211 67.1333 38.714 65.0092L25.9931 20.5H11C8.79086 20.5 7 18.7091 7 16.5Z" fill="black"/>
<path fill-rule="evenodd" clip-rule="evenodd" d="M34.2197 103.81C34.2197 94.3035 43.2307 89.05 50.9797 89.05C53.1889 89.05 54.9797 90.8408 54.9797 93.05C54.9797 95.2591 53.1889 97.05 50.9797 97.05C45.7888 97.05 42.2197 100.376 42.2197 103.81V104.29C42.2197 106.298 42.9768 107.557 44.1047 108.42C45.3573 109.379 47.3651 110.05 49.9797 110.05H49.9964L59.6063 110.13H120.77C122.979 110.13 124.77 111.921 124.77 114.13C124.77 116.339 122.979 118.13 120.77 118.13H59.5731L49.9624 118.05C46.1127 118.047 42.2476 117.073 39.2423 114.773C36.1076 112.373 34.2197 108.752 34.2197 104.29V103.81Z" fill="black"/>
<path fill-rule="evenodd" clip-rule="evenodd" d="M113.866 32.7025C116.046 33.0593 117.525 35.1158 117.168 37.296L108.168 92.296C107.811 94.4761 105.755 95.9543 103.574 95.5975C101.394 95.2408 99.9161 93.1842 100.273 91.0041L109.273 36.0041C109.63 33.8239 111.686 32.3458 113.866 32.7025Z" fill="black"/>
<path fill-rule="evenodd" clip-rule="evenodd" d="M41.2197 63.65C41.2197 61.4409 43.0106 59.65 45.2197 59.65H126.22C128.429 59.65 130.22 61.4409 130.22 63.65C130.22 65.8592 128.429 67.65 126.22 67.65H45.2197C43.0106 67.65 41.2197 65.8592 41.2197 63.65Z" fill="black"/>
<path fill-rule="evenodd" clip-rule="evenodd" d="M60.7863 32.6736C62.9824 32.434 64.9569 34.0201 65.1965 36.2162L71.1965 91.2162C71.4361 93.4123 69.85 95.3868 67.6539 95.6264C65.4578 95.866 63.4832 94.2799 63.2437 92.0838L57.2437 37.0838C57.0041 34.8877 58.5902 32.9132 60.7863 32.6736Z" fill="black"/>
<path fill-rule="evenodd" clip-rule="evenodd" d="M86.2197 32.65C88.4289 32.65 90.2197 34.4409 90.2197 36.65V91.65C90.2197 93.8592 88.4289 95.65 86.2197 95.65C84.0106 95.65 82.2197 93.8592 82.2197 91.65V36.65C82.2197 34.4409 84.0106 32.65 86.2197 32.65Z" fill="black"/>
<path fill-rule="evenodd" clip-rule="evenodd" d="M33.3389 34.0883C34.098 33.1412 35.2462 32.59 36.46 32.59H137.05C138.31 32.59 139.497 33.1841 140.252 34.1932C141.008 35.2023 141.243 36.5084 140.888 37.7177L124.648 92.9877C124.153 94.6707 122.62 95.8352 120.866 95.8596L49.0657 96.8596C47.1714 96.886 45.5183 95.5799 45.1059 93.7308L32.5559 37.4608C32.2917 36.276 32.5797 35.0354 33.3389 34.0883ZM41.4504 40.59L52.2061 88.8151L117.804 87.9015L131.706 40.59H41.4504Z" fill="black"/>
</svg>
