<svg width="150" height="150" viewBox="0 0 150 150" fill="none" xmlns="http://www.w3.org/2000/svg">
<path fill-rule="evenodd" clip-rule="evenodd" d="M35.1797 48.52C34.0788 48.52 33.1797 49.4191 33.1797 50.52V113.65C33.1797 114.751 34.0788 115.65 35.1797 115.65H67.7769L79.0537 115.52L79.0997 115.52H128.18C129.281 115.52 130.18 114.621 130.18 113.52V83.39L130.18 83.3674L130.26 69.21V50.52C130.26 49.4191 129.361 48.52 128.26 48.52H35.1797ZM25.1797 50.52C25.1797 45.0009 29.6605 40.52 35.1797 40.52H128.26C133.779 40.52 138.26 45.0009 138.26 50.52V69.21L138.26 69.2326L138.18 83.39V113.52C138.18 119.039 133.699 123.52 128.18 123.52H79.1225L67.8457 123.65L67.7997 123.65H35.1797C29.6605 123.65 25.1797 119.169 25.1797 113.65V50.52Z" fill="black"/>
<path fill-rule="evenodd" clip-rule="evenodd" d="M22 33.28C20.8991 33.28 20 34.1791 20 35.28V98.41C20 99.5109 20.8991 100.41 22 100.41H27.85C30.0591 100.41 31.85 102.201 31.85 104.41C31.85 106.619 30.0591 108.41 27.85 108.41H22C16.4809 108.41 12 103.929 12 98.41V35.28C12 29.7609 16.4809 25.28 22 25.28H115.08C120.599 25.28 125.08 29.7609 125.08 35.28V44.52C125.08 46.7291 123.289 48.52 121.08 48.52C118.871 48.52 117.08 46.7291 117.08 44.52V35.28C117.08 34.1791 116.181 33.28 115.08 33.28H22Z" fill="black"/>
<path fill-rule="evenodd" clip-rule="evenodd" d="M82.0001 76.9456L74.3588 100.462H67.7014L56.7314 66.7016L63.3888 64.5384L71.0301 88.0544L78.6714 64.5384H85.3288L92.9701 88.0544L100.611 64.5384L107.269 66.7016L96.2988 100.462H89.6414L82.0001 76.9456Z" fill="black"/>
<path fill-rule="evenodd" clip-rule="evenodd" d="M109 83.19H55V76.19H109V83.19Z" fill="black"/>
</svg>
