<svg width="150" height="150" viewBox="0 0 150 150" fill="none" xmlns="http://www.w3.org/2000/svg">
<path fill-rule="evenodd" clip-rule="evenodd" d="M63 18C51.402 18 42 27.402 42 39C42 50.598 51.402 60 63 60C74.598 60 84 50.598 84 39C84 27.402 74.598 18 63 18ZM34 39C34 22.9837 46.9837 10 63 10C79.0163 10 92 22.9837 92 39C92 55.0163 79.0163 68 63 68C46.9837 68 34 55.0163 34 39Z" fill="black"/>
<path fill-rule="evenodd" clip-rule="evenodd" d="M44 86C29.6391 86 18 97.6391 18 112V128H10V112C10 93.2209 25.2209 78 44 78H85V86H44Z" fill="black"/>
<path fill-rule="evenodd" clip-rule="evenodd" d="M71 99.8C71 95.3817 74.5817 91.8 79 91.8H126C130.418 91.8 134 95.3817 134 99.8V132C134 136.418 130.418 140 126 140H79C74.5817 140 71 136.418 71 132V99.8ZM126 99.8H79V132H126V99.8Z" fill="black"/>
<path d="M102.96 122.34C106.401 122.34 109.19 119.573 109.19 116.16C109.19 112.747 106.401 109.98 102.96 109.98C99.5197 109.98 96.7305 112.747 96.7305 116.16C96.7305 119.573 99.5197 122.34 102.96 122.34Z" fill="black"/>
<path fill-rule="evenodd" clip-rule="evenodd" d="M102.84 73C96.1461 73 90.7598 78.3919 90.7598 84.98V95.8C90.7598 98.0091 88.9689 99.8 86.7598 99.8C84.5506 99.8 82.7598 98.0091 82.7598 95.8V84.98C82.7598 73.9282 91.7734 65 102.84 65C113.904 65 122.92 73.9165 122.92 84.98V95.8C122.92 98.0091 121.129 99.8 118.92 99.8C116.711 99.8 114.92 98.0091 114.92 95.8V84.98C114.92 78.3835 109.535 73 102.84 73Z" fill="black"/>
</svg>
