<svg width="150" height="150" viewBox="0 0 150 150" fill="none" xmlns="http://www.w3.org/2000/svg">
<path fill-rule="evenodd" clip-rule="evenodd" d="M70 19C42.3858 19 20 41.3858 20 69C20 96.6142 42.3858 119 70 119C97.6142 119 120 96.6142 120 69C120 41.3858 97.6142 19 70 19ZM12 69C12 36.9675 37.9675 11 70 11C102.033 11 128 36.9675 128 69C128 101.033 102.033 127 70 127C37.9675 127 12 101.033 12 69Z" fill="black"/>
<path fill-rule="evenodd" clip-rule="evenodd" d="M103.069 106.278C104.572 104.659 107.103 104.566 108.722 106.069L136.722 132.069C138.341 133.572 138.434 136.103 136.931 137.722C135.428 139.341 132.897 139.434 131.278 137.931L103.278 111.931C101.659 110.428 101.566 107.897 103.069 106.278Z" fill="black"/>
<path fill-rule="evenodd" clip-rule="evenodd" d="M70.0001 66.9456L62.3588 90.4616H55.7014L44.7314 56.7016L51.3888 54.5384L59.0301 78.0544L66.6714 54.5384H73.3288L80.9701 78.0544L88.6114 54.5384L95.2688 56.7016L84.2988 90.4616H77.6414L70.0001 66.9456Z" fill="black"/>
<path fill-rule="evenodd" clip-rule="evenodd" d="M97 73.19H43V66.19H97V73.19Z" fill="black"/>
</svg>
