<svg width="150" height="150" viewBox="0 0 150 150" fill="none" xmlns="http://www.w3.org/2000/svg">
<path fill-rule="evenodd" clip-rule="evenodd" d="M47.5 29C47.5 26.7909 49.2909 25 51.5 25H61.5C63.7091 25 65.5 26.7909 65.5 29C65.5 31.2091 63.7091 33 61.5 33H51.5C49.2909 33 47.5 31.2091 47.5 29Z" fill="black"/>
<path fill-rule="evenodd" clip-rule="evenodd" d="M14.5 19C14.5 14.5809 18.0809 11 22.5 11H90.5C94.9191 11 98.5 14.5809 98.5 19V55H90.5V19H22.5V117H50.5V125H22.5C18.0809 125 14.5 121.419 14.5 117V19Z" fill="black"/>
<path d="M87.4199 98.43C87.4199 100.64 85.6299 102.43 83.4199 102.43C81.2099 102.43 79.4199 100.64 79.4199 98.43C79.4199 96.22 81.2099 94.43 83.4199 94.43C85.6299 94.43 87.4199 96.22 87.4199 98.43Z" fill="black"/>
<path d="M102.56 98.43C102.56 100.64 100.77 102.43 98.5596 102.43C96.3496 102.43 94.5596 100.64 94.5596 98.43C94.5596 96.22 96.3496 94.43 98.5596 94.43C100.77 94.43 102.56 96.22 102.56 98.43Z" fill="black"/>
<path d="M117.7 98.43C117.7 100.64 115.91 102.43 113.7 102.43C111.49 102.43 109.7 100.64 109.7 98.43C109.7 96.22 111.49 94.43 113.7 94.43C115.91 94.43 117.7 96.22 117.7 98.43Z" fill="black"/>
<path fill-rule="evenodd" clip-rule="evenodd" d="M77.9098 77.19C72.7189 77.19 68.5098 81.3991 68.5098 86.59V110.04C68.5098 115.231 72.7189 119.44 77.9098 119.44H92.2498C93.6289 119.44 94.9108 120.15 95.6418 121.32L100.1 128.453L104.558 121.32C105.289 120.15 106.571 119.44 107.95 119.44H118.1C123.291 119.44 127.5 115.231 127.5 110.04V86.59C127.5 81.3991 123.291 77.19 118.1 77.19H77.9098ZM118.1 69.19H77.9098C68.3006 69.19 60.5098 76.9809 60.5098 86.59V110.04C60.5098 119.649 68.3006 127.44 77.9098 127.44H90.0328L96.7078 138.12C97.4387 139.29 98.7206 140 100.1 140C101.479 140 102.761 139.29 103.492 138.12L110.167 127.44H118.1C127.709 127.44 135.5 119.649 135.5 110.04V86.59C135.5 76.987 127.719 69.2 118.118 69.19C118.115 69.19 118.113 69.19 118.11 69.19C118.106 69.19 118.103 69.19 118.1 69.19Z" fill="black"/>
</svg>
