<svg width="150" height="150" viewBox="0 0 150 150" fill="none" xmlns="http://www.w3.org/2000/svg">
<path fill-rule="evenodd" clip-rule="evenodd" d="M102.5 73C86.2076 73 73 86.2076 73 102.5C73 118.792 86.2076 132 102.5 132C118.792 132 132 118.792 132 102.5C132 86.2076 118.792 73 102.5 73ZM65 102.5C65 81.7893 81.7893 65 102.5 65C123.211 65 140 81.7893 140 102.5C140 123.211 123.211 140 102.5 140C81.7893 140 65 123.211 65 102.5Z" fill="black"/>
<path fill-rule="evenodd" clip-rule="evenodd" d="M123.157 96.1763L100.425 119.508L83.8447 102.186L89.624 96.6545L100.476 107.992L117.427 90.5936L123.157 96.1763Z" fill="black"/>
<path fill-rule="evenodd" clip-rule="evenodd" d="M28.5 56C28.5 53.7909 30.2909 52 32.5 52H75.5C77.7091 52 79.5 53.7909 79.5 56C79.5 58.2091 77.7091 60 75.5 60H32.5C30.2909 60 28.5 58.2091 28.5 56Z" fill="black"/>
<path fill-rule="evenodd" clip-rule="evenodd" d="M28.5 77C28.5 74.7909 30.2909 73 32.5 73H55.5C57.7091 73 59.5 74.7909 59.5 77C59.5 79.2091 57.7091 81 55.5 81H32.5C30.2909 81 28.5 79.2091 28.5 77Z" fill="black"/>
<path fill-rule="evenodd" clip-rule="evenodd" d="M10 34C10 29.5809 13.5809 26 18 26H119C123.419 26 127 29.5809 127 34V60H119V34H18V105H53V113H18C13.5809 113 10 109.419 10 105V34Z" fill="black"/>
</svg>
