<svg width="150" height="150" viewBox="0 0 150 150" fill="none" xmlns="http://www.w3.org/2000/svg">
<path d="M76.6 31.55C76.6 31.55 69.38 80.42 102.61 80.42C102.61 80.42 132.48 81.2 129.52 32.33C129.52 32.33 104.52 55.4 76.6 31.55Z" stroke="black" stroke-width="8" stroke-linecap="round" stroke-linejoin="round"/>
<path d="M89.9102 53.55L91.6802 54.72" stroke="black" stroke-width="8" stroke-linecap="round" stroke-linejoin="round"/>
<path d="M113.17 53.55L111.39 54.72" stroke="black" stroke-width="8" stroke-linecap="round" stroke-linejoin="round"/>
<path d="M93.91 41.1C93.97 40.41 94 39.71 94 39C94 25.19 82.81 14 69 14C55.19 14 44 25.19 44 39C44 52.81 55.19 64 69 64C72.44 64 75.72 63.3 78.7 62.05" stroke="black" stroke-width="8" stroke-linecap="round" stroke-linejoin="round"/>
<path d="M118 124V112C118 95.43 104.57 82 88 82H50C33.43 82 20 95.43 20 112V124" stroke="black" stroke-width="8" stroke-linecap="square" stroke-linejoin="round"/>
</svg>
