<svg width="150" height="150" viewBox="0 0 150 150" fill="none" xmlns="http://www.w3.org/2000/svg">
<path fill-rule="evenodd" clip-rule="evenodd" d="M67.5 99.8C67.5 95.3817 71.0817 91.8 75.5 91.8H122.5C126.918 91.8 130.5 95.3817 130.5 99.8V132C130.5 136.418 126.918 140 122.5 140H75.5C71.0817 140 67.5 136.418 67.5 132V99.8ZM122.5 99.8H75.5V132H122.5V99.8Z" fill="black"/>
<path d="M99.4605 122.34C102.901 122.34 105.69 119.573 105.69 116.16C105.69 112.747 102.901 109.98 99.4605 109.98C96.0197 109.98 93.2305 112.747 93.2305 116.16C93.2305 119.573 96.0197 122.34 99.4605 122.34Z" fill="black"/>
<path fill-rule="evenodd" clip-rule="evenodd" d="M99.3398 73C92.6461 73 87.2598 78.3919 87.2598 84.98V95.8C87.2598 98.0091 85.4689 99.8 83.2598 99.8C81.0506 99.8 79.2598 98.0091 79.2598 95.8V84.98C79.2598 73.9282 88.2734 65 99.3398 65C110.404 65 119.42 73.9165 119.42 84.98V95.8C119.42 98.0091 117.629 99.8 115.42 99.8C113.211 99.8 111.42 98.0091 111.42 95.8V84.98C111.42 78.3835 106.035 73 99.3398 73Z" fill="black"/>
<path fill-rule="evenodd" clip-rule="evenodd" d="M52.5 29C52.5 26.7909 54.2909 25 56.5 25H66.5C68.7091 25 70.5 26.7909 70.5 29C70.5 31.2091 68.7091 33 66.5 33H56.5C54.2909 33 52.5 31.2091 52.5 29Z" fill="black"/>
<path fill-rule="evenodd" clip-rule="evenodd" d="M19.5 19C19.5 14.5809 23.0809 11 27.5 11H95.5C99.9191 11 103.5 14.5809 103.5 19V55H95.5V19H27.5V117H55.5V125H27.5C23.0809 125 19.5 121.419 19.5 117V19Z" fill="black"/>
</svg>
