<svg width="150" height="150" viewBox="0 0 150 150" fill="none" xmlns="http://www.w3.org/2000/svg">
<path fill-rule="evenodd" clip-rule="evenodd" d="M57 18C45.402 18 36 27.402 36 39C36 50.598 45.402 60 57 60C68.598 60 78 50.598 78 39C78 27.402 68.598 18 57 18ZM28 39C28 22.9837 40.9837 10 57 10C73.0163 10 86 22.9837 86 39C86 55.0163 73.0163 68 57 68C40.9837 68 28 55.0163 28 39Z" fill="black"/>
<path fill-rule="evenodd" clip-rule="evenodd" d="M44 86C29.6391 86 18 97.6391 18 112V128H10V112C10 93.2209 25.2209 78 44 78H88V86H44Z" fill="black"/>
<path fill-rule="evenodd" clip-rule="evenodd" d="M53.5929 80.4406C55.498 80.7682 56.7768 82.578 56.4492 84.4831L51.3165 114.335L60.1165 121.118C61.6475 122.298 61.932 124.496 60.752 126.027C59.5719 127.558 57.3742 127.842 55.8432 126.662L45.3732 118.592C44.3459 117.8 43.8407 116.505 44.0605 115.227L49.5505 83.2969C49.878 81.3919 51.6879 80.1131 53.5929 80.4406Z" fill="black"/>
<path fill-rule="evenodd" clip-rule="evenodd" d="M63.6914 80.4316C65.6014 80.1343 67.3907 81.4417 67.688 83.3517L72.658 115.282C72.8544 116.544 72.3479 117.812 71.3363 118.592L60.8663 126.662C59.3353 127.842 57.1376 127.558 55.9575 126.027C54.7775 124.496 55.062 122.298 56.593 121.118L65.4228 114.312L60.7713 84.4283C60.474 82.5183 61.7814 80.7289 63.6914 80.4316Z" fill="black"/>
<path fill-rule="evenodd" clip-rule="evenodd" d="M104 81C91.2975 81 81 91.2975 81 104C81 116.703 91.2975 127 104 127C116.703 127 127 116.703 127 104C127 91.2975 116.703 81 104 81ZM73 104C73 86.8792 86.8792 73 104 73C121.121 73 135 86.8792 135 104C135 121.121 121.121 135 104 135C86.8792 135 73 121.121 73 104Z" fill="black"/>
<path fill-rule="evenodd" clip-rule="evenodd" d="M119.069 121.278C120.572 119.659 123.103 119.566 124.722 121.069L138.722 134.069C140.341 135.572 140.434 138.103 138.931 139.722C137.428 141.341 134.897 141.434 133.278 139.931L119.278 126.931C117.659 125.428 117.566 122.897 119.069 121.278Z" fill="black"/>
</svg>
