<svg width="150" height="150" viewBox="0 0 150 150" fill="none" xmlns="http://www.w3.org/2000/svg">
<path fill-rule="evenodd" clip-rule="evenodd" d="M104 80C91.2975 80 81 90.2975 81 103C81 115.703 91.2975 126 104 126C116.703 126 127 115.703 127 103C127 90.2975 116.703 80 104 80ZM73 103C73 85.8792 86.8792 72 104 72C121.121 72 135 85.8792 135 103C135 120.121 121.121 134 104 134C86.8792 134 73 120.121 73 103Z" fill="black"/>
<path fill-rule="evenodd" clip-rule="evenodd" d="M119.069 120.278C120.572 118.659 123.103 118.566 124.722 120.069L138.722 133.069C140.341 134.572 140.434 137.103 138.931 138.722C137.428 140.341 134.897 140.434 133.278 138.931L119.278 125.931C117.659 124.428 117.566 121.897 119.069 120.278Z" fill="black"/>
<path fill-rule="evenodd" clip-rule="evenodd" d="M33.1797 48.52C32.0788 48.52 31.1797 49.4191 31.1797 50.52V113.65C31.1797 114.751 32.0788 115.65 33.1797 115.65H65.7997V123.65H33.1797C27.6605 123.65 23.1797 119.169 23.1797 113.65V50.52C23.1797 45.0009 27.6605 40.52 33.1797 40.52H126.26C131.779 40.52 136.26 45.0009 136.26 50.52V69.21H128.26V50.52C128.26 49.4191 127.361 48.52 126.26 48.52H33.1797Z" fill="black"/>
<path fill-rule="evenodd" clip-rule="evenodd" d="M20 33.28C18.8991 33.28 18 34.1791 18 35.28V98.41C18 99.5109 18.8991 100.41 20 100.41H25.85C28.0591 100.41 29.85 102.201 29.85 104.41C29.85 106.619 28.0591 108.41 25.85 108.41H20C14.4809 108.41 10 103.929 10 98.41V35.28C10 29.7609 14.4809 25.28 20 25.28H113.08C118.599 25.28 123.08 29.7609 123.08 35.28V44.52C123.08 46.7291 121.289 48.52 119.08 48.52C116.871 48.52 115.08 46.7291 115.08 44.52V35.28C115.08 34.1791 114.181 33.28 113.08 33.28H20Z" fill="black"/>
<path fill-rule="evenodd" clip-rule="evenodd" d="M39.5 67C39.5 64.7909 41.2909 63 43.5 63H86.5C88.7091 63 90.5 64.7909 90.5 67C90.5 69.2091 88.7091 71 86.5 71H43.5C41.2909 71 39.5 69.2091 39.5 67Z" fill="black"/>
<path fill-rule="evenodd" clip-rule="evenodd" d="M39.5 88C39.5 85.7909 41.2909 84 43.5 84H66.5C68.7091 84 70.5 85.7909 70.5 88C70.5 90.2091 68.7091 92 66.5 92H43.5C41.2909 92 39.5 90.2091 39.5 88Z" fill="black"/>
</svg>
