<svg width="150" height="150" viewBox="0 0 150 150" fill="none" xmlns="http://www.w3.org/2000/svg">
<path fill-rule="evenodd" clip-rule="evenodd" d="M57 18C45.402 18 36 27.402 36 39C36 50.598 45.402 60 57 60C68.598 60 78 50.598 78 39C78 27.402 68.598 18 57 18ZM28 39C28 22.9837 40.9837 10 57 10C73.0163 10 86 22.9837 86 39C86 55.0163 73.0163 68 57 68C40.9837 68 28 55.0163 28 39Z" fill="black"/>
<path fill-rule="evenodd" clip-rule="evenodd" d="M44 86C29.6391 86 18 97.6391 18 112V128H10V112C10 93.2209 25.2209 78 44 78H101V86H44Z" fill="black"/>
<path fill-rule="evenodd" clip-rule="evenodd" d="M53.5929 80.4406C55.498 80.7682 56.7768 82.578 56.4492 84.4831L51.3165 114.335L60.1165 121.118C61.6475 122.298 61.932 124.496 60.752 126.027C59.5719 127.558 57.3742 127.842 55.8432 126.662L45.3732 118.592C44.3459 117.8 43.8407 116.505 44.0605 115.227L49.5505 83.2969C49.878 81.3919 51.6879 80.1131 53.5929 80.4406Z" fill="black"/>
<path fill-rule="evenodd" clip-rule="evenodd" d="M63.6914 80.4316C65.6014 80.1344 67.3907 81.4417 67.688 83.3517L72.658 115.282C72.8544 116.544 72.3479 117.812 71.3363 118.592L60.8663 126.662C59.3353 127.842 57.1376 127.558 55.9575 126.027C54.7775 124.496 55.062 122.298 56.593 121.118L65.4228 114.312L60.7713 84.4283C60.474 82.5183 61.7814 80.7289 63.6914 80.4316Z" fill="black"/>
<path fill-rule="evenodd" clip-rule="evenodd" d="M105.97 73.0869C109.917 72.4691 113.116 74.8022 115.125 77.8062C115.227 77.9595 115.319 78.1197 115.4 78.2857L120.753 89.3328L132.495 90.9159C132.618 90.9326 132.741 90.9551 132.863 90.9833C136.263 91.7713 139.506 93.7129 140.633 97.2786C141.748 100.807 140.263 104.279 138.001 106.947C137.831 107.148 137.644 107.328 137.446 107.487L129.493 115.544L132.006 127.604C132.021 127.678 132.035 127.753 132.046 127.828C132.56 131.257 131.137 134.739 128.314 136.837C127.393 137.523 126.37 138.03 125.275 138.352C123.23 139.041 121.059 138.915 118.959 138.285C118.416 138.131 117.869 137.94 117.321 137.712C117.159 137.645 117.005 137.568 116.857 137.483C116.594 137.361 116.333 137.233 116.075 137.099L116.042 137.081C116.043 137.082 116.044 137.083 116.042 137.081C116.038 137.079 116.025 137.073 116.003 137.061L115.882 136.999C115.821 136.967 115.746 136.929 115.659 136.884C115.603 136.855 115.541 136.823 115.475 136.789C115.138 136.616 114.68 136.382 114.143 136.107C113.068 135.556 111.679 134.846 110.303 134.143C109.008 133.481 107.726 132.826 106.732 132.318L97.0112 137.569C96.9709 137.591 96.9302 137.612 96.8892 137.633C93.3659 139.382 89.06 140.055 85.7372 137.435C82.4866 134.872 81.9866 130.556 82.6776 126.624L84.4253 116.154C83.6473 115.377 82.6423 114.374 81.6253 113.358C79.4523 111.189 77.2694 109.011 77.0751 108.822C74.1999 106.012 72.1784 102.213 73.3111 98.2437C74.4541 94.2379 78.2041 92.1426 82.0945 91.384C82.1412 91.3748 82.1882 91.3665 82.2353 91.3591L93.1097 89.6394C93.6276 88.6107 94.3062 87.2625 94.9918 85.8998C95.7004 84.4913 96.4161 83.068 96.9695 81.966C97.2462 81.4148 97.4817 80.9453 97.6552 80.5986C97.7421 80.425 97.8125 80.284 97.8644 80.1797L97.9259 80.0558C97.9397 80.0279 97.945 80.017 97.945 80.017L97.9636 79.9788C99.6288 76.6069 102.278 73.6649 105.97 73.0869ZM95.7601 93.27L99.3326 95.0692C98.7535 96.219 97.6564 97.0198 96.3849 97.2209L83.5611 99.2488C82.4086 99.481 81.7183 99.8206 81.352 100.085C81.1722 100.214 81.0838 100.316 81.045 100.368C81.0097 100.416 81.0044 100.438 81.0041 100.439C81.0035 100.441 80.9945 100.47 81.0003 100.546C81.0066 100.628 81.0322 100.781 81.1234 101.01C81.3119 101.484 81.7526 102.207 82.665 103.098M95.7601 93.27C99.3326 95.0692 99.3325 95.0693 99.3326 95.0692L100.204 93.339C100.728 92.2979 101.429 90.9044 102.138 89.4952C103.496 86.7963 104.928 83.9478 105.14 83.5136C105.683 82.4174 106.212 81.75 106.618 81.3771C106.817 81.1946 106.971 81.0965 107.068 81.0459C107.117 81.0208 107.152 81.0071 107.174 80.9998C107.186 80.9958 107.194 80.9934 107.2 80.9921C107.217 80.9964 107.264 81.0112 107.343 81.0557C107.532 81.1625 107.891 81.4365 108.335 82.0513L114.49 94.7543C115.075 95.9614 116.226 96.7949 117.556 96.9741L131.223 98.8168C132.542 99.1489 132.919 99.5733 133 99.6936C133.006 99.8255 132.977 100.397 132.152 101.462L122.293 111.45C121.352 112.403 120.951 113.764 121.224 115.076L124.143 129.088C124.189 129.577 123.971 130.097 123.541 130.418C123.448 130.487 123.307 130.573 123.109 130.643C123.049 130.66 122.989 130.678 122.929 130.697C122.534 130.797 121.966 130.822 121.181 130.602C120.792 130.48 120.324 130.291 119.772 130.005C119.379 129.798 116.593 128.374 113.944 127.02C112.568 126.316 111.207 125.621 110.19 125.101L108.501 124.239L108.5 124.238C108.5 124.238 108.499 124.238 106.68 127.8L108.5 124.238C107.328 123.64 105.937 123.655 104.779 124.281L93.2737 130.496C91.6282 131.302 90.8897 131.193 90.6913 131.135C90.5797 130.96 90.1746 130.17 90.559 127.996L90.5656 127.958L92.6554 115.439C92.6554 115.439 92.6555 115.439 88.7101 114.78L92.6554 115.439C92.8683 114.164 92.4517 112.864 91.5368 111.95L88.7101 114.78C91.5368 111.95 91.5369 111.95 91.5368 111.95L91.5353 111.948L90.2158 110.631C89.4205 109.836 88.3556 108.773 87.2773 107.697C85.1395 105.563 82.9037 103.332 82.665 103.098" fill="black"/>
</svg>
