<svg width="150" height="150" viewBox="0 0 150 150" fill="none" xmlns="http://www.w3.org/2000/svg">
<path fill-rule="evenodd" clip-rule="evenodd" d="M101.025 111.907C101.27 109.712 103.248 108.13 105.443 108.375L123.663 110.405C124.757 110.526 125.752 111.094 126.415 111.973C127.077 112.851 127.348 113.964 127.164 115.049L123.944 134.019C123.574 136.197 121.509 137.663 119.331 137.294C117.153 136.924 115.687 134.859 116.057 132.681L118.568 117.886L104.557 116.325C102.362 116.081 100.78 114.103 101.025 111.907Z" fill="black"/>
<path fill-rule="evenodd" clip-rule="evenodd" d="M75 18C43.5191 18 18 43.5191 18 75C18 106.481 43.5191 132 75 132C89.8132 132 103.291 126.36 113.432 117.097C115.064 115.607 117.594 115.721 119.083 117.352C120.573 118.984 120.459 121.514 118.828 123.003C107.269 133.56 91.8868 140 75 140C39.1009 140 10 110.899 10 75C10 39.1009 39.1009 10 75 10C110.899 10 140 39.1009 140 75C140 77.9816 139.798 80.9082 139.415 83.7787C139.123 85.9684 137.111 87.5069 134.921 87.2149C132.732 86.9229 131.193 84.9111 131.485 82.7213C131.822 80.1918 132 77.6184 132 75C132 43.5191 106.481 18 75 18Z" fill="black"/>
<path d="M62.2903 48.24H50.1543V103H59.9963V80.134C59.9963 78.8513 59.947 77.4453 59.8483 75.916C59.7496 74.3373 59.6263 72.7587 59.4783 71.18C59.3796 69.552 59.2316 67.9733 59.0343 66.444C58.8863 64.8653 58.7383 63.4347 58.5903 62.152H58.8863L63.2523 75.028L71.7623 98.042H78.0523L86.4883 75.028L90.9283 62.152H91.2243C91.0763 63.4347 90.9283 64.8653 90.7803 66.444C90.6323 67.9733 90.4843 69.552 90.3363 71.18C90.1883 72.7587 90.065 74.3373 89.9663 75.916C89.917 77.4453 89.8923 78.8513 89.8923 80.134V103H99.8823V48.24H87.7463L78.6443 73.844C78.0523 75.5707 77.485 77.322 76.9423 79.098C76.449 80.874 75.9063 82.65 75.3143 84.426H74.9443L73.3163 79.098C72.7736 77.322 72.2063 75.5707 71.6143 73.844L62.2903 48.24Z" fill="black"/>
</svg>
