<svg width="150" height="150" viewBox="0 0 150 150" fill="none" xmlns="http://www.w3.org/2000/svg">
<path fill-rule="evenodd" clip-rule="evenodd" d="M133.15 58.56H17.1504V50.56H133.15V58.56Z" fill="black"/>
<path d="M50 93H31C29.3431 93 28 94.3431 28 96V103C28 104.657 29.3431 106 31 106H50C51.6569 106 53 104.657 53 103V96C53 94.3431 51.6569 93 50 93Z" fill="black"/>
<path fill-rule="evenodd" clip-rule="evenodd" d="M26 34.06C21.5817 34.06 18 37.6417 18 42.06V107.94C18 112.358 21.5817 115.94 26 115.94H124C128.418 115.94 132 112.358 132 107.94V42.06C132 37.6417 128.418 34.06 124 34.06H26ZM10 42.06C10 33.2234 17.1634 26.06 26 26.06H124C132.837 26.06 140 33.2234 140 42.06V107.94C140 116.777 132.837 123.94 124 123.94H26C17.1634 123.94 10 116.777 10 107.94V42.06Z" fill="black"/>
</svg>
