<svg width="150" height="150" viewBox="0 0 150 150" fill="none" xmlns="http://www.w3.org/2000/svg">
<path fill-rule="evenodd" clip-rule="evenodd" d="M75 18C43.5198 18 18 43.5198 18 75C18 106.48 43.5198 132 75 132C106.48 132 132 106.48 132 75C132 43.5198 106.48 18 75 18ZM10 75C10 39.1015 39.1015 10 75 10C110.899 10 140 39.1015 140 75C140 110.899 110.899 140 75 140C39.1015 140 10 110.899 10 75Z" fill="black"/>
<path fill-rule="evenodd" clip-rule="evenodd" d="M101.83 63.8269L70.4607 95.2288L65.3868 90.9136L47.1738 72.7308L52.826 67.0692L70.0778 84.2924L96.17 58.173L101.83 63.8269Z" fill="black"/>
</svg>
