<svg width="150" height="150" viewBox="0 0 150 150" fill="none" xmlns="http://www.w3.org/2000/svg">
<path fill-rule="evenodd" clip-rule="evenodd" d="M48 28C48 25.7909 49.7909 24 52 24H62C64.2091 24 66 25.7909 66 28C66 30.2091 64.2091 32 62 32H52C49.7909 32 48 30.2091 48 28Z" fill="black"/>
<path fill-rule="evenodd" clip-rule="evenodd" d="M15 19C15 14.5809 18.5809 11 23 11H91C95.4191 11 99 14.5809 99 19V59H91V19H23V117H53V125H23C18.5809 125 15 121.419 15 117V19Z" fill="black"/>
<path d="M87.9199 98.28C87.9199 100.49 86.1299 102.28 83.9199 102.28C81.7099 102.28 79.9199 100.49 79.9199 98.28C79.9199 96.07 81.7099 94.28 83.9199 94.28C86.1299 94.28 87.9199 96.07 87.9199 98.28Z" fill="black"/>
<path d="M103.06 98.28C103.06 100.49 101.27 102.28 99.0596 102.28C96.8496 102.28 95.0596 100.49 95.0596 98.28C95.0596 96.07 96.8496 94.28 99.0596 94.28C101.27 94.28 103.06 96.07 103.06 98.28Z" fill="black"/>
<path d="M118.2 98.28C118.2 100.49 116.41 102.28 114.2 102.28C111.99 102.28 110.2 100.49 110.2 98.28C110.2 96.07 111.99 94.28 114.2 94.28C116.41 94.28 118.2 96.07 118.2 98.28Z" fill="black"/>
<path fill-rule="evenodd" clip-rule="evenodd" d="M78.4098 77.04C73.2189 77.04 69.0098 81.2491 69.0098 86.44V109.89C69.0098 115.081 73.2189 119.29 78.4098 119.29H92.7498C94.1289 119.29 95.4108 120 96.1418 121.17L100.6 128.303L105.058 121.17C105.789 120 107.071 119.29 108.45 119.29H118.6C123.791 119.29 128 115.081 128 109.89V86.44C128 81.2491 123.791 77.04 118.6 77.04H78.4098ZM118.6 69.04H78.4098C68.8006 69.04 61.0098 76.8309 61.0098 86.44V109.89C61.0098 119.499 68.8006 127.29 78.4098 127.29H90.5328L97.2078 137.97C97.9387 139.14 99.2206 139.85 100.6 139.85C101.979 139.85 103.261 139.14 103.992 137.97L110.667 127.29H118.6C128.209 127.29 136 119.499 136 109.89V86.44C136 76.837 128.219 69.05 118.618 69.04C118.615 69.04 118.613 69.04 118.61 69.04C118.606 69.04 118.603 69.04 118.6 69.04Z" fill="black"/>
</svg>
