<svg width="150" height="150" viewBox="0 0 150 150" fill="none" xmlns="http://www.w3.org/2000/svg">
<path fill-rule="evenodd" clip-rule="evenodd" d="M29.0267 49.4987C29.2609 47.4816 30.9694 45.96 33 45.96H117C119.031 45.96 120.739 47.4816 120.973 49.4987L130.973 135.629C131.105 136.762 130.746 137.898 129.987 138.75C129.228 139.603 128.141 140.09 127 140.09H23C21.8588 140.09 20.7719 139.603 20.0129 138.75C19.2539 137.898 18.8951 136.762 19.0267 135.629L29.0267 49.4987ZM36.5625 53.96L27.4913 132.09H122.509L113.438 53.96H36.5625Z" fill="black"/>
<path fill-rule="evenodd" clip-rule="evenodd" d="M75.04 18.09C66.2057 18.09 59.04 25.2627 59.04 34.12V58.16C59.04 60.3692 57.2492 62.16 55.04 62.16C52.8309 62.16 51.04 60.3692 51.04 58.16V34.12C51.04 20.8574 61.7744 10.09 75.04 10.09C88.3057 10.09 99.04 20.8574 99.04 34.12V58.16C99.04 60.3692 97.2492 62.16 95.04 62.16C92.8309 62.16 91.04 60.3692 91.04 58.16V34.12C91.04 25.2627 83.8744 18.09 75.04 18.09Z" fill="black"/>
</svg>
