<svg width="150" height="150" viewBox="0 0 150 150" fill="none" xmlns="http://www.w3.org/2000/svg">
<path fill-rule="evenodd" clip-rule="evenodd" d="M122.376 80.4027C121.462 79.4856 119.97 79.4774 119.038 80.4084L80.4499 118.997L78.1156 130.107L89.7818 128.191L128.307 89.6659C129.224 88.7524 129.233 87.2595 128.302 86.3284L122.376 80.4027ZM128.041 74.7543C123.994 70.6944 117.43 70.7036 113.382 74.7516L73.9516 114.182C73.4026 114.731 73.0252 115.428 72.8655 116.187L69.0855 134.177C68.8142 135.469 69.1973 136.811 70.1096 137.765C71.0218 138.719 72.3458 139.161 73.6481 138.947L92.3481 135.877C93.174 135.742 93.9366 135.35 94.5285 134.758L133.953 95.3341C133.954 95.333 133.955 95.332 133.956 95.3309C138.016 91.2841 138.006 84.7195 133.958 80.6716L128.044 74.7573C128.043 74.7563 128.042 74.7553 128.041 74.7543Z" fill="black"/>
<path fill-rule="evenodd" clip-rule="evenodd" d="M108.132 81.5016C109.694 79.9395 112.226 79.9395 113.788 81.5016L126.458 94.1716C128.02 95.7337 128.02 98.2663 126.458 99.8284C124.896 101.391 122.364 101.391 120.802 99.8284L108.132 87.1584C106.569 85.5963 106.569 83.0637 108.132 81.5016Z" fill="black"/>
<path fill-rule="evenodd" clip-rule="evenodd" d="M20 50C20 45.5809 23.5809 42 28 42H122C126.419 42 130 45.5809 130 50V63.46H122V50H28V126H59.94V134H28C23.5809 134 20 130.419 20 126V50Z" fill="black"/>
<path fill-rule="evenodd" clip-rule="evenodd" d="M51 26.57C51 20.6721 55.8401 16 61.67 16H88.33C94.1599 16 99 20.6721 99 26.57V43C99 45.2091 97.2091 47 95 47C92.7909 47 91 45.2091 91 43V26.57C91 25.2079 89.8601 24 88.33 24H61.67C60.1399 24 59 25.2079 59 26.57V43C59 45.2091 57.2091 47 55 47C52.7909 47 51 45.2091 51 43V26.57Z" fill="black"/>
<path fill-rule="evenodd" clip-rule="evenodd" d="M39.5 73C39.5 70.7909 41.2909 69 43.5 69H86.5C88.7091 69 90.5 70.7909 90.5 73C90.5 75.2091 88.7091 77 86.5 77H43.5C41.2909 77 39.5 75.2091 39.5 73Z" fill="black"/>
<path fill-rule="evenodd" clip-rule="evenodd" d="M39.5 94C39.5 91.7909 41.2909 90 43.5 90H66.5C68.7091 90 70.5 91.7909 70.5 94C70.5 96.2091 68.7091 98 66.5 98H43.5C41.2909 98 39.5 96.2091 39.5 94Z" fill="black"/>
</svg>
