<svg width="150" height="150" viewBox="0 0 150 150" fill="none" xmlns="http://www.w3.org/2000/svg">
<path fill-rule="evenodd" clip-rule="evenodd" d="M119.376 77.4027C118.462 76.4856 116.97 76.4774 116.038 77.4084L77.4499 115.997L75.1156 127.107L86.7818 125.191L125.307 86.6659C126.224 85.7524 126.233 84.2595 125.302 83.3284L119.376 77.4027ZM125.041 71.7543C120.994 67.6944 114.43 67.7036 110.382 71.7516L70.9516 111.182C70.4026 111.731 70.0252 112.428 69.8655 113.187L66.0855 131.177C65.8142 132.469 66.1973 133.811 67.1096 134.765C68.0218 135.719 69.3458 136.161 70.6481 135.947L89.3481 132.877C90.174 132.742 90.9366 132.35 91.5285 131.758L130.953 92.3341C130.954 92.333 130.955 92.332 130.956 92.3309C135.016 88.2841 135.006 81.7195 130.958 77.6716L125.044 71.7573C125.043 71.7563 125.042 71.7553 125.041 71.7543Z" fill="black"/>
<path fill-rule="evenodd" clip-rule="evenodd" d="M105.132 78.5016C106.694 76.9395 109.226 76.9395 110.788 78.5016L123.458 91.1716C125.02 92.7337 125.02 95.2663 123.458 96.8284C121.896 98.3905 119.364 98.3905 117.802 96.8284L105.132 84.1584C103.569 82.5963 103.569 80.0637 105.132 78.5016Z" fill="black"/>
<path fill-rule="evenodd" clip-rule="evenodd" d="M18 19C18 14.5809 21.5809 11 26 11H104C108.419 11 112 14.5809 112 19V55H104V19H26V116H58V124H26C21.5809 124 18 120.419 18 116V19Z" fill="black"/>
<path fill-rule="evenodd" clip-rule="evenodd" d="M39.5 86C39.5 83.7909 41.2909 82 43.5 82H76.5C78.7091 82 80.5 83.7909 80.5 86C80.5 88.2091 78.7091 90 76.5 90H43.5C41.2909 90 39.5 88.2091 39.5 86Z" fill="black"/>
<path fill-rule="evenodd" clip-rule="evenodd" d="M43.5791 63.9187L70.6591 36.8387L74.9017 41.0813L47.8217 68.1613L43.5791 63.9187Z" fill="black"/>
<path d="M49.5 49.07C52.8137 49.07 55.5 46.3837 55.5 43.07C55.5 39.7563 52.8137 37.07 49.5 37.07C46.1863 37.07 43.5 39.7563 43.5 43.07C43.5 46.3837 46.1863 49.07 49.5 49.07Z" fill="black"/>
<path d="M68.9805 67.93C72.2942 67.93 74.9805 65.2437 74.9805 61.93C74.9805 58.6163 72.2942 55.93 68.9805 55.93C65.6668 55.93 62.9805 58.6163 62.9805 61.93C62.9805 65.2437 65.6668 67.93 68.9805 67.93Z" fill="black"/>
</svg>
