<svg width="150" height="150" viewBox="0 0 150 150" fill="none" xmlns="http://www.w3.org/2000/svg">
<path fill-rule="evenodd" clip-rule="evenodd" d="M24 22.5C24 18.0817 27.5817 14.5 32 14.5H118C122.418 14.5 126 18.0817 126 22.5V127.5C126 131.918 122.418 135.5 118 135.5H32C27.5817 135.5 24 131.918 24 127.5V22.5ZM118 22.5H32V127.5H118V22.5Z" fill="black"/>
<path fill-rule="evenodd" clip-rule="evenodd" d="M48.5 99.99C48.5 97.7809 50.2909 95.99 52.5 95.99H98.5C100.709 95.99 102.5 97.7809 102.5 99.99C102.5 102.199 100.709 103.99 98.5 103.99H52.5C50.2909 103.99 48.5 102.199 48.5 99.99Z" fill="black"/>
<path fill-rule="evenodd" clip-rule="evenodd" d="M60.6516 82.9619L49.6816 49.2119L56.3388 47.0481L63.9802 70.5575L71.6216 47.0481L78.2788 47.0481L85.9202 70.5575L93.5616 47.0481L100.219 49.2119L89.2488 82.9619H82.5916L74.9502 59.4525L67.3088 82.9619H60.6516Z" fill="black"/>
<path fill-rule="evenodd" clip-rule="evenodd" d="M102 65.69H48V58.69H102V65.69Z" fill="black"/>
</svg>
