<svg width="150" height="150" viewBox="0 0 150 150" fill="none" xmlns="http://www.w3.org/2000/svg">
<path fill-rule="evenodd" clip-rule="evenodd" d="M20 50C20 45.5809 23.5809 42 28 42H122C126.419 42 130 45.5809 130 50V126C130 130.419 126.419 134 122 134H28C23.5809 134 20 130.419 20 126V50ZM122 126V50H28V126H122Z" fill="black"/>
<path fill-rule="evenodd" clip-rule="evenodd" d="M51 26.57C51 20.6721 55.8401 16 61.67 16H88.33C94.1599 16 99 20.6721 99 26.57V43C99 45.2091 97.2091 47 95 47C92.7909 47 91 45.2091 91 43V26.57C91 25.2079 89.8601 24 88.33 24H61.67C60.1399 24 59 25.2079 59 26.57V43C59 45.2091 57.2091 47 55 47C52.7909 47 51 45.2091 51 43V26.57Z" fill="black"/>
<path fill-rule="evenodd" clip-rule="evenodd" d="M75.0001 81.9456L67.3588 105.462H60.7014L49.7314 71.7016L56.3888 69.5384L64.0301 93.0544L71.6714 69.5384H78.3288L85.9701 93.0544L93.6114 69.5384L100.269 71.7016L89.2988 105.462H82.6414L75.0001 81.9456Z" fill="black"/>
<path fill-rule="evenodd" clip-rule="evenodd" d="M102 88.19H48V81.19H102V88.19Z" fill="black"/>
</svg>
