<svg width="150" height="150" viewBox="0 0 150 150" fill="none" xmlns="http://www.w3.org/2000/svg">
<path fill-rule="evenodd" clip-rule="evenodd" d="M63 18C51.402 18 42 27.402 42 39C42 50.598 51.402 60 63 60C74.598 60 84 50.598 84 39C84 27.402 74.598 18 63 18ZM34 39C34 22.9837 46.9837 10 63 10C79.0163 10 92 22.9837 92 39C92 55.0163 79.0163 68 63 68C46.9837 68 34 55.0163 34 39Z" fill="black"/>
<path fill-rule="evenodd" clip-rule="evenodd" d="M44 86C29.6391 86 18 97.6391 18 112V128H10V112C10 93.2209 25.2209 78 44 78H76V86H44Z" fill="black"/>
<path fill-rule="evenodd" clip-rule="evenodd" d="M100.395 63.9748C101.893 62.6884 104.107 62.6884 105.605 63.9748C110.508 68.1831 117.428 70.8977 125.23 70.9589C125.319 70.953 125.409 70.95 125.5 70.95C127.822 70.95 130.059 70.7169 132.184 70.2741C133.363 70.0285 134.589 70.3269 135.524 71.0865C136.458 71.8461 137 72.986 137 74.19V97.01C137 97.0957 136.997 97.1814 136.992 97.2669C136.293 108.125 134.116 116.724 129.798 122.202C125.507 128.307 118.375 133.625 108.917 138.348L108.896 138.359L107.616 138.989L107.582 139.006C104.658 140.41 101.21 140.332 98.3517 138.77L98.3474 138.768C87.6908 132.927 80.0397 127.44 76.1003 122.234L76.0979 122.23C71.7132 116.424 69.5403 107.863 69.005 97.2209C69.0017 97.154 69 97.087 69 97.02V74.2C69 72.9988 69.5398 71.8612 70.4702 71.1016C71.4007 70.3419 72.6233 70.0406 73.8002 70.2808C75.9466 70.7191 78.1885 70.96 80.5 70.96C88.4125 70.96 95.4358 68.2315 100.395 63.9748ZM125.8 78.9489C125.701 78.9563 125.601 78.96 125.5 78.96C117.018 78.96 109.168 76.4119 103 72.0712C96.832 76.4119 88.9818 78.96 80.5 78.96C79.3172 78.96 78.1497 78.9091 77 78.8114V96.9184C77.5131 106.9 79.5363 113.508 82.4814 117.409C85.3225 121.162 91.6496 125.973 102.188 131.75C102.766 132.066 103.491 132.09 104.105 131.8L105.343 131.192C105.346 131.19 105.35 131.188 105.353 131.186C114.295 126.719 120.112 122.112 123.308 117.524C123.358 117.452 123.41 117.382 123.465 117.313C126.241 113.839 128.315 107.318 129 96.8801V78.8044C127.945 78.8929 126.878 78.9414 125.8 78.9489Z" fill="black"/>
<path fill-rule="evenodd" clip-rule="evenodd" d="M123.657 93.6763L100.925 117.008L84.3447 99.6862L90.124 94.1545L100.976 105.492L117.927 88.0936L123.657 93.6763Z" fill="black"/>
</svg>
