<svg width="150" height="150" viewBox="0 0 150 150" fill="none" xmlns="http://www.w3.org/2000/svg">
<path fill-rule="evenodd" clip-rule="evenodd" d="M102.5 100.588L97.0776 117.273H92.3225L84.5225 93.2727L89.2776 91.7273L94.7 108.412L100.122 91.7273H104.878L110.3 108.412L115.722 91.7273L120.478 93.2727L112.678 117.273H107.922L102.5 100.588Z" fill="black"/>
<path fill-rule="evenodd" clip-rule="evenodd" d="M121.7 105H83.2998V100H121.7V105Z" fill="black"/>
<path fill-rule="evenodd" clip-rule="evenodd" d="M102.5 100.588L97.0776 117.273H92.3225L84.5225 93.2727L89.2776 91.7273L94.7 108.412L100.122 91.7273H104.878L110.3 108.412L115.722 91.7273L120.478 93.2727L112.678 117.273H107.922L102.5 100.588Z" fill="black"/>
<path fill-rule="evenodd" clip-rule="evenodd" d="M121.7 105H83.2998V100H121.7V105Z" fill="black"/>
<path fill-rule="evenodd" clip-rule="evenodd" d="M102.5 73C86.2091 73 73 86.2091 73 102.5C73 118.791 86.2091 132 102.5 132C118.791 132 132 118.791 132 102.5C132 86.2091 118.791 73 102.5 73ZM65 102.5C65 81.7909 81.7909 65 102.5 65C123.209 65 140 81.7909 140 102.5C140 123.209 123.209 140 102.5 140C81.7909 140 65 123.209 65 102.5Z" fill="black"/>
<path fill-rule="evenodd" clip-rule="evenodd" d="M26 33C21.5791 33 18 36.5791 18 41V100C18 104.421 21.5791 108 26 108H55V116H26C17.1609 116 10 108.839 10 100V41C10 32.1609 17.1609 25 26 25H117C125.839 25 133 32.1609 133 41V52H125V41C125 36.5791 121.421 33 117 33H26Z" fill="black"/>
<path fill-rule="evenodd" clip-rule="evenodd" d="M133 56H15V48H133V56Z" fill="black"/>
<path d="M45 88H29C27.3431 88 26 89.3431 26 91V97C26 98.6569 27.3431 100 29 100H45C46.6569 100 48 98.6569 48 97V91C48 89.3431 46.6569 88 45 88Z" fill="black"/>
</svg>
