<svg width="150" height="150" viewBox="0 0 150 150" fill="none" xmlns="http://www.w3.org/2000/svg">
<path fill-rule="evenodd" clip-rule="evenodd" d="M34 49C34 44.5817 37.5817 41 42 41H59C63.4183 41 67 44.5817 67 49V66C67 70.4183 63.4183 74 59 74H42C37.5817 74 34 70.4183 34 66V49ZM59 49H42V66H59V49Z" fill="black"/>
<path fill-rule="evenodd" clip-rule="evenodd" d="M78.9697 49.5C78.9697 47.2909 80.7606 45.5 82.9697 45.5H98.9697C101.179 45.5 102.97 47.2909 102.97 49.5C102.97 51.7091 101.179 53.5 98.9697 53.5H82.9697C80.7606 53.5 78.9697 51.7091 78.9697 49.5Z" fill="black"/>
<path fill-rule="evenodd" clip-rule="evenodd" d="M78.9697 65.5C78.9697 63.2909 80.7606 61.5 82.9697 61.5H107.97C110.179 61.5 111.97 63.2909 111.97 65.5C111.97 67.7091 110.179 69.5 107.97 69.5H82.9697C80.7606 69.5 78.9697 67.7091 78.9697 65.5Z" fill="black"/>
<path fill-rule="evenodd" clip-rule="evenodd" d="M23.05 94.51V94.5394L18.1801 117.51H130.978L124.92 94.6408V94.51H23.05ZM15.0646 93.6319C15.3218 89.3522 18.9469 86.51 22.84 86.51H125.13C128.987 86.51 132.581 89.3002 132.897 93.5142L139.23 117.419V117.94C139.23 122.547 135.418 125.51 131.44 125.51H17.79C13.812 125.51 10 122.547 10 117.94V117.521L15.0646 93.6319Z" fill="black"/>
<path fill-rule="evenodd" clip-rule="evenodd" d="M26.3096 32C25.2087 32 24.3096 32.8991 24.3096 34V90.03C24.3096 92.2391 22.5187 94.03 20.3096 94.03C18.1004 94.03 16.3096 92.2391 16.3096 90.03V34C16.3096 28.4809 20.7904 24 26.3096 24H122.01C127.529 24 132.01 28.4809 132.01 34V90.03C132.01 92.2391 130.219 94.03 128.01 94.03C125.8 94.03 124.01 92.2391 124.01 90.03V34C124.01 32.8991 123.11 32 122.01 32H26.3096Z" fill="black"/>
</svg>
