<svg width="40" height="42" viewBox="0 0 40 42" fill="none" xmlns="http://www.w3.org/2000/svg">
<path d="M39.7412 11.0639L33.2046 4.313C33.0399 4.14291 32.8164 4.04572 32.5811 4.04572H14.8182C15.2338 4.60053 15.5828 5.21204 15.8494 5.8681H32.2125L38.2355 12.0885V40.1776H11.8498V16.2719C11.293 16.5311 10.7009 16.7255 10.0853 16.8429V41.0888C10.0853 41.591 10.4813 42 10.9675 42H39.1177C39.604 42 40 41.591 40 41.0888V11.7078C40 11.4649 39.9059 11.234 39.7412 11.0639Z" fill="white"/>
<path d="M39.1177 12.6191H32.5811C32.0949 12.6191 31.6989 12.21 31.6989 11.7079V4.95692C31.6989 4.58839 31.9145 4.25631 32.2439 4.11457C32.5733 3.97283 32.9536 4.05382 33.2046 4.31301L39.7412 11.0639C39.9922 11.3231 40.0706 11.716 39.9333 12.0561C39.7961 12.3963 39.4746 12.6191 39.1177 12.6191ZM33.4634 10.7967H36.9885L33.4634 7.15593V10.7967Z" fill="white"/>
<path d="M18.2923 21.7917C16.7983 21.7917 15.5789 20.5363 15.5789 18.9893C15.5789 17.4423 16.7944 16.1869 18.2923 16.1869C19.7902 16.1869 21.0058 17.4423 21.0058 18.9893C21.0058 20.5363 19.7902 21.7917 18.2923 21.7917ZM18.2923 18.0093C17.7708 18.0093 17.3434 18.4467 17.3434 18.9893C17.3434 19.532 17.7669 19.9694 18.2923 19.9694C18.8178 19.9694 19.2412 19.5279 19.2412 18.9893C19.2412 18.4507 18.8138 18.0093 18.2923 18.0093Z" fill="white"/>
<path d="M33.6242 19.9045H23.5546C23.0683 19.9045 22.6723 19.4955 22.6723 18.9933C22.6723 18.4912 23.0683 18.0822 23.5546 18.0822H33.6242C34.1104 18.0822 34.5064 18.4912 34.5064 18.9933C34.5064 19.4955 34.1104 19.9045 33.6242 19.9045Z" fill="white"/>
<path d="M18.2923 29.4741C16.7983 29.4741 15.5789 28.2187 15.5789 26.6717C15.5789 25.1247 16.7944 23.8693 18.2923 23.8693C19.7902 23.8693 21.0058 25.1247 21.0058 26.6717C21.0058 28.2187 19.7902 29.4741 18.2923 29.4741ZM18.2923 25.6917C17.7708 25.6917 17.3434 26.129 17.3434 26.6717C17.3434 27.2144 17.7669 27.6517 18.2923 27.6517C18.8178 27.6517 19.2412 27.2103 19.2412 26.6717C19.2412 26.1331 18.8138 25.6917 18.2923 25.6917Z" fill="white"/>
<path d="M33.6242 27.5829H23.5546C23.0683 27.5829 22.6723 27.1739 22.6723 26.6717C22.6723 26.1695 23.0683 25.7605 23.5546 25.7605H33.6242C34.1104 25.7605 34.5064 26.1695 34.5064 26.6717C34.5064 27.1739 34.1104 27.5829 33.6242 27.5829Z" fill="white"/>
<path d="M18.2923 37.1565C16.7983 37.1565 15.5789 35.9011 15.5789 34.3541C15.5789 32.8071 16.7944 31.5516 18.2923 31.5516C19.7902 31.5516 21.0058 32.8071 21.0058 34.3541C21.0058 35.9011 19.7902 37.1565 18.2923 37.1565ZM18.2923 33.374C17.7708 33.374 17.3434 33.8154 17.3434 34.3541C17.3434 34.8927 17.7669 35.3341 18.2923 35.3341C18.8178 35.3341 19.2412 34.8927 19.2412 34.3541C19.2412 33.8154 18.8138 33.374 18.2923 33.374Z" fill="white"/>
<path d="M33.6242 35.2653H23.5546C23.0683 35.2653 22.6723 34.8562 22.6723 34.3541C22.6723 33.8519 23.0683 33.4429 23.5546 33.4429H33.6242C34.1104 33.4429 34.5064 33.8519 34.5064 34.3541C34.5064 34.8562 34.1104 35.2653 33.6242 35.2653Z" fill="white"/>
<path d="M8.6619 17.8959C3.88589 17.8959 0 13.8785 0 8.94591C0 4.01331 3.88589 0 8.6619 0C13.4379 0 17.3238 4.01331 17.3238 8.94591C17.3238 13.8785 13.4379 17.8918 8.6619 17.8918M8.6619 1.81834C4.85835 1.82239 1.76453 5.01765 1.76453 8.94591C1.76453 12.8742 4.85835 16.0694 8.6619 16.0694C12.4654 16.0694 15.5593 12.8742 15.5593 8.94591C15.5593 5.01765 12.4654 1.82239 8.6619 1.82239" fill="white"/>
<path d="M6.99539 12.7891C6.76796 12.7891 6.54445 12.7 6.37192 12.5218L4.28193 10.3633C3.93687 10.0069 3.93687 9.43187 4.28193 9.0755C4.62699 8.71912 5.1838 8.71912 5.52887 9.0755L6.99539 10.5901L11.2616 6.18397C11.6067 5.82759 12.1635 5.82759 12.5086 6.18397C12.8536 6.54035 12.8536 7.11541 12.5086 7.47179L7.61886 12.5218C7.44633 12.7 7.22282 12.7891 6.99539 12.7891Z" fill="white"/>
</svg>
