<svg width="24" height="25" viewBox="0 0 24 25" fill="none" xmlns="http://www.w3.org/2000/svg">
<path d="M8 5.77533V19.1087H10.6667V14.6687L13.3333 19.1087H16L12 12.442L16 5.77533H13.3333L10.6667 10.2153V5.77533H8ZM2.66667 0.442001H21.3333C22.0406 0.442001 22.7189 0.722953 23.219 1.22305C23.719 1.72315 24 2.40142 24 3.10867V21.7753C24 22.4826 23.719 23.1609 23.219 23.661C22.7189 24.161 22.0406 24.442 21.3333 24.442H2.66667C1.95942 24.442 1.28115 24.161 0.781048 23.661C0.280951 23.1609 0 22.4826 0 21.7753V3.10867C0 2.40142 0.280951 1.72315 0.781048 1.22305C1.28115 0.722953 1.95942 0.442001 2.66667 0.442001Z" fill="#666"/>
</svg>
