<svg width="24" height="25" viewBox="0 0 24 25" fill="none" xmlns="http://www.w3.org/2000/svg">
<path d="M0 3.10867C0 2.40142 0.280951 1.72315 0.781048 1.22305C1.28115 0.722953 1.95942 0.442001 2.66667 0.442001H21.3333C22.0406 0.442001 22.7189 0.722953 23.219 1.22305C23.719 1.72315 24 2.40142 24 3.10867V21.7753C24 22.4826 23.719 23.1609 23.219 23.661C22.7189 24.161 22.0406 24.442 21.3333 24.442H2.66667C1.18667 24.442 0 23.242 0 21.7753V3.10867ZM10.6667 5.77533C9.95942 5.77533 9.28115 6.05629 8.78105 6.55638C8.28095 7.05648 8 7.73476 8 8.442V19.1087H10.6667V13.7753H13.3333V19.1087H16V8.442C16 7.73476 15.719 7.05648 15.219 6.55638C14.7189 6.05629 14.0406 5.77533 13.3333 5.77533H10.6667ZM10.6667 8.442H13.3333V11.1087H10.6667V8.442Z" fill="black"/>
</svg>
