<svg width="52" height="25" viewBox="0 0 52 25" fill="none" xmlns="http://www.w3.org/2000/svg">
<path d="M0 3.10867C0 2.40142 0.280951 1.72315 0.781048 1.22305C1.28115 0.722953 1.95942 0.442001 2.66667 0.442001H21.3333C22.0406 0.442001 22.7189 0.722953 23.219 1.22305C23.719 1.72315 24 2.40142 24 3.10867V21.7753C24 22.4826 23.719 23.1609 23.219 23.661C22.7189 24.161 22.0406 24.442 21.3333 24.442H2.66667C1.18667 24.442 0 23.242 0 21.7753V3.10867ZM10.6667 5.77533C9.95942 5.77533 9.28115 6.05629 8.78105 6.55638C8.28095 7.05648 8 7.73476 8 8.442V19.1087H10.6667V13.7753H13.3333V19.1087H16V8.442C16 7.73476 15.719 7.05648 15.219 6.55638C14.7189 6.05629 14.0406 5.77533 13.3333 5.77533H10.6667ZM10.6667 8.442H13.3333V11.1087H10.6667V8.442Z" fill="black"/>
<path d="M36 5.77533V19.1087H38.6667V14.6687L41.3333 19.1087H44L40 12.442L44 5.77533H41.3333L38.6667 10.2153V5.77533H36ZM30.6667 0.442001H49.3333C50.0406 0.442001 50.7189 0.722953 51.219 1.22305C51.719 1.72315 52 2.40142 52 3.10867V21.7753C52 22.4826 51.719 23.1609 51.219 23.661C50.7189 24.161 50.0406 24.442 49.3333 24.442H30.6667C29.9594 24.442 29.2811 24.161 28.781 23.661C28.281 23.1609 28 22.4826 28 21.7753V3.10867C28 2.40142 28.281 1.72315 28.781 1.22305C29.2811 0.722953 29.9594 0.442001 30.6667 0.442001Z" fill="#1F95F1"/>
</svg>
