<svg width="568" height="202" viewBox="0 0 568 202" fill="none" xmlns="http://www.w3.org/2000/svg">
<path fill-rule="evenodd" clip-rule="evenodd" d="M187.6 194.137L66.1604 54.3445L62.3857 57.6236L187.6 201.761L187.6 194.137Z" fill="black"/>
<path fill-rule="evenodd" clip-rule="evenodd" d="M282.316 85.1094L282.315 85.1085L187.6 194.137L187.6 201.761L282.316 92.7315V85.1094Z" fill="black"/>
<path fill-rule="evenodd" clip-rule="evenodd" d="M361.337 176.008L513.436 0.923584L517.21 4.20266L361.337 183.632L361.337 176.008Z" fill="black"/>
<path fill-rule="evenodd" clip-rule="evenodd" d="M282.316 92.6686L361.337 183.632L361.337 176.008L282.454 85.2039L282.316 85.3241V92.6686Z" fill="black"/>
<line x1="0.209549" y1="82.6085" x2="567.486" y2="82.6085" stroke="#2988F8" stroke-width="5"/>
<circle cx="446.476" cy="81.3922" r="14.6461" stroke="#FF3A5E" stroke-width="4"/>
<path d="M481.577 102.906H486.149V136.242H481.577V102.906ZM477.581 115.614H483.089V119.466H477.581V115.614ZM474.269 103.41H478.769V134.73H474.269V103.41ZM458.429 106.326H471.605V127.926H458.429V106.326ZM467.141 110.07H462.893V124.182H467.141V110.07ZM503.174 103.878H507.386V105.426C507.386 111.834 502.346 117.27 493.598 118.566L491.726 114.714C499.394 113.706 503.174 109.35 503.174 105.426V103.878ZM504.074 103.878H508.25V105.426C508.25 109.314 512.066 113.706 519.698 114.714L517.862 118.566C509.114 117.27 504.074 111.834 504.074 105.426V103.878ZM503.21 124.038H507.962V136.242H503.21V124.038ZM490.646 121.014H520.778V124.902H490.646V121.014Z" fill="#FF3A5E"/>
</svg>
