<svg width="25" height="24" viewBox="0 0 25 24" fill="none" xmlns="http://www.w3.org/2000/svg">
<path d="M4.49805 4H7.49805L9.49805 2H15.498L17.498 4H20.498C21.0285 4 21.5372 4.21071 21.9123 4.58579C22.2873 4.96086 22.498 5.46957 22.498 6V18C22.498 18.5304 22.2873 19.0391 21.9123 19.4142C21.5372 19.7893 21.0285 20 20.498 20H4.49805C3.96761 20 3.45891 19.7893 3.08383 19.4142C2.70876 19.0391 2.49805 18.5304 2.49805 18V6C2.49805 5.46957 2.70876 4.96086 3.08383 4.58579C3.45891 4.21071 3.96761 4 4.49805 4ZM12.498 7C11.172 7 9.90019 7.52678 8.96251 8.46447C8.02483 9.40215 7.49805 10.6739 7.49805 12C7.49805 13.3261 8.02483 14.5979 8.96251 15.5355C9.90019 16.4732 11.172 17 12.498 17C13.8241 17 15.0959 16.4732 16.0336 15.5355C16.9713 14.5979 17.498 13.3261 17.498 12C17.498 10.6739 16.9713 9.40215 16.0336 8.46447C15.0959 7.52678 13.8241 7 12.498 7ZM12.498 9C13.2937 9 14.0568 9.31607 14.6194 9.87868C15.182 10.4413 15.498 11.2044 15.498 12C15.498 12.7956 15.182 13.5587 14.6194 14.1213C14.0568 14.6839 13.2937 15 12.498 15C11.7024 15 10.9393 14.6839 10.3767 14.1213C9.81412 13.5587 9.49805 12.7956 9.49805 12C9.49805 11.2044 9.81412 10.4413 10.3767 9.87868C10.9393 9.31607 11.7024 9 12.498 9Z" fill="#7BAEE8"/>
</svg>
