<svg width="24" height="25" viewBox="0 0 24 25" fill="none" xmlns="http://www.w3.org/2000/svg">
<path d="M7 4.50668C7.53043 4.50668 8.03914 4.7174 8.41421 5.09247C8.78929 5.46754 9 5.97625 9 6.50668C9 7.03712 8.78929 7.54582 8.41421 7.9209C8.03914 8.29597 7.53043 8.50668 7 8.50668C6.46957 8.50668 5.96086 8.29597 5.58579 7.9209C5.21071 7.54582 5 7.03712 5 6.50668C5 5.97625 5.21071 5.46754 5.58579 5.09247C5.96086 4.7174 6.46957 4.50668 7 4.50668ZM11.15 12.5067H22V20.5067C22 21.0371 21.7893 21.5458 21.4142 21.9209C21.0391 22.296 20.5304 22.5067 20 22.5067H4C3.46957 22.5067 2.96086 22.296 2.58579 21.9209C2.21071 21.5458 2 21.0371 2 20.5067V12.5067H5V11.7567C5 10.5067 6 9.50668 7.25 9.50668H7.28C7.62 9.50668 7.95 9.59668 8.24 9.73668C8.5 9.85668 8.74 10.0067 8.93 10.2367L10.33 11.7867C10.56 12.0467 10.84 12.2867 11.15 12.5067ZM7 20.5067V14.5067H5V20.5067H7ZM11 20.5067V14.5067H9V20.5067H11ZM15 20.5067V14.5067H13V20.5067H15ZM19 20.5067V14.5067H17V20.5067H19ZM18.65 6.36668C19.68 7.36668 20.16 8.71668 19.95 10.0767L19.89 10.5067H18L18.09 9.91668C18.24 9.12668 18 8.33668 17.42 7.71668L17.35 7.65668C16.32 6.64668 15.85 5.29668 16.05 3.93668L16.11 3.50668H18L17.91 4.09668C17.76 4.88668 18 5.67668 18.58 6.29668L18.65 6.36668ZM14.65 6.36668C15.68 7.36668 16.16 8.71668 15.95 10.0767L15.89 10.5067H14L14.09 9.91668C14.24 9.12668 14 8.33668 13.42 7.71668L13.35 7.65668C12.32 6.64668 11.85 5.29668 12.05 3.93668L12.11 3.50668H14L13.91 4.09668C13.76 4.88668 14 5.67668 14.58 6.29668L14.65 6.36668Z" fill="#E87BD7"/>
</svg>
